<?xml version="1.0" encoding="UTF-8"?>
<svg xmlns="http://www.w3.org/2000/svg" viewBox="0 0 870.41 870.09">
  <defs>
    <style>
      .cls-1 {
        fill: #fff;
      }

      .cls-2 {
        font-family: Roboto-Regular, Roboto;
        font-size: 10px;
        font-variation-settings: 'wght' 400, 'wdth' 100;
      }
    </style>
  </defs>
  <g id="recuadres">
    <g id="baixos">
      <g id="baix-0">
        <rect class="cls-1" x="373.91" y="411.09" width="123" height="48" rx="9" ry="9"/>
        <path d="M487.91,412.09c4.41,0,8,3.59,8,8v30c0,4.41-3.59,8-8,8h-105c-4.41,0-8-3.59-8-8v-30c0-4.41,3.59-8,8-8h105M487.91,410.09h-105c-5.52,0-10,4.48-10,10v30c0,5.52,4.48,10,10,10h105c5.52,0,10-4.48,10-10v-30c0-5.52-4.48-10-10-10h0Z"/>
      </g>
    </g>
    <g id="contraforts">
      <g id="contrafort-0">
        <rect class="cls-1" x="373.41" y="350.54" width="124" height="49" rx="9.5" ry="9.5"/>
        <path d="M487.91,351.04c4.96,0,9,4.04,9,9v30c0,4.96-4.04,9-9,9h-105c-4.96,0-9-4.04-9-9v-30c0-4.96,4.04-9,9-9h105M487.91,350.04h-105c-5.52,0-10,4.48-10,10v30c0,5.52,4.48,10,10,10h105c5.52,0,10-4.48,10-10v-30c0-5.52-4.48-10-10-10h0Z"/>
      </g>
    </g>
    <g id="agulles">
      <g id="agulla-0">
        <rect class="cls-1" x="373.41" y="470.59" width="124" height="49" rx="9.5" ry="9.5"/>
        <path d="M487.91,471.09c4.96,0,9,4.04,9,9v30c0,4.96-4.04,9-9,9h-105c-4.96,0-9-4.04-9-9v-30c0-4.96,4.04-9,9-9h105M487.91,470.09h-105c-5.52,0-10,4.48-10,10v30c0,5.52,4.48,10,10,10h105c5.52,0,10-4.48,10-10v-30c0-5.52-4.48-10-10-10h0Z"/>
      </g>
    </g>
    <g id="rengles">
      <g>
        <g id="_x3C_Repetición_radial_x3E_">
          <g id="rengles-2" data-name="rengles">
            <g id="rengla-0">
              <rect class="cls-1" x="373.41" y="580.09" width="124" height="49" rx="9.5" ry="9.5"/>
              <path d="M487.91,580.59c4.96,0,9,4.04,9,9v30c0,4.96-4.04,9-9,9h-105c-4.96,0-9-4.04-9-9v-30c0-4.96,4.04-9,9-9h105M487.91,579.59h-105c-5.52,0-10,4.48-10,10v30c0,5.52,4.48,10,10,10h105c5.52,0,10-4.48,10-10v-30c0-5.52-4.48-10-10-10h0Z"/>
            </g>
          </g>
        </g>
        <g id="_x3C_Repetición_radial_x3E_-2" data-name="_x3C_Repetición_radial_x3E_">
          <g id="rengles-3" data-name="rengles">
            <g id="rengla-0-2" data-name="rengla-0">
              <rect class="cls-1" x="240.91" y="372.59" width="49" height="124" rx="9.5" ry="9.5"/>
              <path d="M280.41,373.09c4.96,0,9,4.04,9,9v105c0,4.96-4.04,9-9,9h-30c-4.96,0-9-4.04-9-9v-105c0-4.96,4.04-9,9-9h30M280.41,372.09h-30c-5.52,0-10,4.48-10,10v105c0,5.52,4.48,10,10,10h30c5.52,0,10-4.48,10-10v-105c0-5.52-4.48-10-10-10h0Z"/>
            </g>
          </g>
        </g>
        <g id="_x3C_Repetición_radial_x3E_-3" data-name="_x3C_Repetición_radial_x3E_">
          <g id="rengles-4" data-name="rengles">
            <g id="rengla-0-3" data-name="rengla-0">
              <rect class="cls-1" x="373.41" y="240.09" width="124" height="49" rx="9.5" ry="9.5"/>
              <path d="M487.91,240.59c4.96,0,9,4.04,9,9v30c0,4.96-4.04,9-9,9h-105c-4.96,0-9-4.04-9-9v-30c0-4.96,4.04-9,9-9h105M487.91,239.59h-105c-5.52,0-10,4.48-10,10v30c0,5.52,4.48,10,10,10h105c5.52,0,10-4.48,10-10v-30c0-5.52-4.48-10-10-10h0Z"/>
            </g>
          </g>
        </g>
        <g id="_x3C_Repetición_radial_x3E_-4" data-name="_x3C_Repetición_radial_x3E_">
          <g id="rengles-5" data-name="rengles">
            <g id="rengla-0-4" data-name="rengla-0">
              <rect class="cls-1" x="580.91" y="372.59" width="49" height="124" rx="9.5" ry="9.5"/>
              <path d="M620.41,373.09c4.96,0,9,4.04,9,9v105c0,4.96-4.04,9-9,9h-30c-4.96,0-9-4.04-9-9v-105c0-4.96,4.04-9,9-9h30M620.41,372.09h-30c-5.52,0-10,4.48-10,10v105c0,5.52,4.48,10,10,10h30c5.52,0,10-4.48,10-10v-105c0-5.52-4.48-10-10-10h0Z"/>
            </g>
          </g>
        </g>
      </g>
      <g>
        <g id="rengles-6" data-name="rengles">
          <g id="rengla-0-5" data-name="rengla-0">
            <rect class="cls-1" x="373.72" y="640.2" width="124" height="49" rx="9.5" ry="9.5"/>
            <path d="M488.22,640.7c4.96,0,9,4.04,9,9v30c0,4.96-4.04,9-9,9h-105c-4.96,0-9-4.04-9-9v-30c0-4.96,4.04-9,9-9h105M488.22,639.7h-105c-5.52,0-10,4.48-10,10v30c0,5.52,4.48,10,10,10h105c5.52,0,10-4.48,10-10v-30c0-5.52-4.48-10-10-10h0Z"/>
          </g>
        </g>
        <g id="rengles-7" data-name="rengles">
          <g id="rengla-0-6" data-name="rengla-0">
            <rect class="cls-1" x="181.22" y="372.7" width="49" height="124" rx="9.5" ry="9.5"/>
            <path d="M220.72,373.2c4.96,0,9,4.04,9,9v105c0,4.96-4.04,9-9,9h-30c-4.96,0-9-4.04-9-9v-105c0-4.96,4.04-9,9-9h30M220.72,372.2h-30c-5.52,0-10,4.48-10,10v105c0,5.52,4.48,10,10,10h30c5.52,0,10-4.48,10-10v-105c0-5.52-4.48-10-10-10h0Z"/>
          </g>
        </g>
        <g id="rengles-8" data-name="rengles">
          <g id="rengla-0-7" data-name="rengla-0">
            <rect class="cls-1" x="373.72" y="180.2" width="124" height="49" rx="9.5" ry="9.5"/>
            <path d="M488.22,180.7c4.96,0,9,4.04,9,9v30c0,4.96-4.04,9-9,9h-105c-4.96,0-9-4.04-9-9v-30c0-4.96,4.04-9,9-9h105M488.22,179.7h-105c-5.52,0-10,4.48-10,10v30c0,5.52,4.48,10,10,10h105c5.52,0,10-4.48,10-10v-30c0-5.52-4.48-10-10-10h0Z"/>
          </g>
        </g>
        <g id="rengles-9" data-name="rengles">
          <g id="rengla-0-8" data-name="rengla-0">
            <rect class="cls-1" x="641.22" y="372.7" width="49" height="124" rx="9.5" ry="9.5"/>
            <path d="M680.72,373.2c4.96,0,9,4.04,9,9v105c0,4.96-4.04,9-9,9h-30c-4.96,0-9-4.04-9-9v-105c0-4.96,4.04-9,9-9h30M680.72,372.2h-30c-5.52,0-10,4.48-10,10v105c0,5.52,4.48,10,10,10h30c5.52,0,10-4.48,10-10v-105c0-5.52-4.48-10-10-10h0Z"/>
          </g>
        </g>
      </g>
      <g>
        <g id="rengles-10" data-name="rengles">
          <g id="rengla-0-9" data-name="rengla-0">
            <rect class="cls-1" x="373.41" y="700.59" width="124" height="49" rx="9.5" ry="9.5"/>
            <path d="M487.91,701.09c4.96,0,9,4.04,9,9v30c0,4.96-4.04,9-9,9h-105c-4.96,0-9-4.04-9-9v-30c0-4.96,4.04-9,9-9h105M487.91,700.09h-105c-5.52,0-10,4.48-10,10v30c0,5.52,4.48,10,10,10h105c5.52,0,10-4.48,10-10v-30c0-5.52-4.48-10-10-10h0Z"/>
          </g>
        </g>
        <g id="rengles-11" data-name="rengles">
          <g id="rengla-0-10" data-name="rengla-0">
            <rect class="cls-1" x="120.91" y="373.09" width="49" height="124" rx="9.5" ry="9.5"/>
            <path d="M160.41,373.59c4.96,0,9,4.04,9,9v105c0,4.96-4.04,9-9,9h-30c-4.96,0-9-4.04-9-9v-105c0-4.96,4.04-9,9-9h30M160.41,372.59h-30c-5.52,0-10,4.48-10,10v105c0,5.52,4.48,10,10,10h30c5.52,0,10-4.48,10-10v-105c0-5.52-4.48-10-10-10h0Z"/>
          </g>
        </g>
        <g id="rengles-12" data-name="rengles">
          <g id="rengla-0-11" data-name="rengla-0">
            <rect class="cls-1" x="373.41" y="120.59" width="124" height="49" rx="9.5" ry="9.5"/>
            <path d="M487.91,121.09c4.96,0,9,4.04,9,9v30c0,4.96-4.04,9-9,9h-105c-4.96,0-9-4.04-9-9v-30c0-4.96,4.04-9,9-9h105M487.91,120.09h-105c-5.52,0-10,4.48-10,10v30c0,5.52,4.48,10,10,10h105c5.52,0,10-4.48,10-10v-30c0-5.52-4.48-10-10-10h0Z"/>
          </g>
        </g>
        <g id="rengles-13" data-name="rengles">
          <g id="rengla-0-12" data-name="rengla-0">
            <rect class="cls-1" x="700.91" y="373.09" width="49" height="124" rx="9.5" ry="9.5"/>
            <path d="M740.41,373.59c4.96,0,9,4.04,9,9v105c0,4.96-4.04,9-9,9h-30c-4.96,0-9-4.04-9-9v-105c0-4.96,4.04-9,9-9h30M740.41,372.59h-30c-5.52,0-10,4.48-10,10v105c0,5.52,4.48,10,10,10h30c5.52,0,10-4.48,10-10v-105c0-5.52-4.48-10-10-10h0Z"/>
          </g>
        </g>
      </g>
      <g>
        <g id="rengles-14" data-name="rengles">
          <g id="rengla-0-13" data-name="rengla-0">
            <rect class="cls-1" x="373.41" y="760.59" width="124" height="49" rx="9.5" ry="9.5"/>
            <path d="M487.91,761.09c4.96,0,9,4.04,9,9v30c0,4.96-4.04,9-9,9h-105c-4.96,0-9-4.04-9-9v-30c0-4.96,4.04-9,9-9h105M487.91,760.09h-105c-5.52,0-10,4.48-10,10v30c0,5.52,4.48,10,10,10h105c5.52,0,10-4.48,10-10v-30c0-5.52-4.48-10-10-10h0Z"/>
          </g>
        </g>
        <g id="rengles-15" data-name="rengles">
          <g id="rengla-0-14" data-name="rengla-0">
            <rect class="cls-1" x="60.91" y="373.09" width="49" height="124" rx="9.5" ry="9.5"/>
            <path d="M100.41,373.59c4.96,0,9,4.04,9,9v105c0,4.96-4.04,9-9,9h-30c-4.96,0-9-4.04-9-9v-105c0-4.96,4.04-9,9-9h30M100.41,372.59h-30c-5.52,0-10,4.48-10,10v105c0,5.52,4.48,10,10,10h30c5.52,0,10-4.48,10-10v-105c0-5.52-4.48-10-10-10h0Z"/>
          </g>
        </g>
        <g id="rengles-16" data-name="rengles">
          <g id="rengla-0-15" data-name="rengla-0">
            <rect class="cls-1" x="373.41" y="60.59" width="124" height="49" rx="9.5" ry="9.5"/>
            <path d="M487.91,61.09c4.96,0,9,4.04,9,9v30c0,4.96-4.04,9-9,9h-105c-4.96,0-9-4.04-9-9v-30c0-4.96,4.04-9,9-9h105M487.91,60.09h-105c-5.52,0-10,4.48-10,10v30c0,5.52,4.48,10,10,10h105c5.52,0,10-4.48,10-10v-30c0-5.52-4.48-10-10-10h0Z"/>
          </g>
        </g>
        <g id="rengles-17" data-name="rengles">
          <g id="rengla-0-16" data-name="rengla-0">
            <rect class="cls-1" x="760.91" y="373.09" width="49" height="124" rx="9.5" ry="9.5"/>
            <path d="M800.41,373.59c4.96,0,9,4.04,9,9v105c0,4.96-4.04,9-9,9h-30c-4.96,0-9-4.04-9-9v-105c0-4.96,4.04-9,9-9h30M800.41,372.59h-30c-5.52,0-10,4.48-10,10v105c0,5.52,4.48,10,10,10h30c5.52,0,10-4.48,10-10v-105c0-5.52-4.48-10-10-10h0Z"/>
          </g>
        </g>
      </g>
      <g>
        <g id="rengles-18" data-name="rengles">
          <g id="rengla-0-17" data-name="rengla-0">
            <rect class="cls-1" x="373.41" y="820.59" width="124" height="49" rx="9.5" ry="9.5"/>
            <path d="M487.91,821.09c4.96,0,9,4.04,9,9v30c0,4.96-4.04,9-9,9h-105c-4.96,0-9-4.04-9-9v-30c0-4.96,4.04-9,9-9h105M487.91,820.09h-105c-5.52,0-10,4.48-10,10v30c0,5.52,4.48,10,10,10h105c5.52,0,10-4.48,10-10v-30c0-5.52-4.48-10-10-10h0Z"/>
          </g>
        </g>
        <g id="rengles-19" data-name="rengles">
          <g id="rengla-0-18" data-name="rengla-0">
            <rect class="cls-1" x=".91" y="373.09" width="49" height="124" rx="9.5" ry="9.5"/>
            <path d="M40.41,373.59c4.96,0,9,4.04,9,9v105c0,4.96-4.04,9-9,9H10.41c-4.96,0-9-4.04-9-9v-105c0-4.96,4.04-9,9-9h30M40.41,372.59H10.41c-5.52,0-10,4.48-10,10v105c0,5.52,4.48,10,10,10h30c5.52,0,10-4.48,10-10v-105c0-5.52-4.48-10-10-10h0Z"/>
          </g>
        </g>
        <g id="rengles-20" data-name="rengles">
          <g id="rengla-0-19" data-name="rengla-0">
            <rect class="cls-1" x="373.41" y=".59" width="124" height="49" rx="9.5" ry="9.5"/>
            <path d="M487.91,1.09c4.96,0,9,4.04,9,9v30c0,4.96-4.04,9-9,9h-105c-4.96,0-9-4.04-9-9V10.09c0-4.96,4.04-9,9-9h105M487.91.09h-105c-5.52,0-10,4.48-10,10v30c0,5.52,4.48,10,10,10h105c5.52,0,10-4.48,10-10V10.09c0-5.52-4.48-10-10-10h0Z"/>
          </g>
        </g>
        <g id="rengles-21" data-name="rengles">
          <g id="rengla-0-20" data-name="rengla-0">
            <rect class="cls-1" x="820.91" y="373.09" width="49" height="124" rx="9.5" ry="9.5"/>
            <path d="M860.41,373.59c4.96,0,9,4.04,9,9v105c0,4.96-4.04,9-9,9h-30c-4.96,0-9-4.04-9-9v-105c0-4.96,4.04-9,9-9h30M860.41,372.59h-30c-5.52,0-10,4.48-10,10v105c0,5.52,4.48,10,10,10h30c5.52,0,10-4.48,10-10v-105c0-5.52-4.48-10-10-10h0Z"/>
          </g>
        </g>
      </g>
    </g>
    <g id="laterals">
      <g>
        <g id="contraforts-2" data-name="contraforts">
          <g id="contrafort-0-2" data-name="contrafort-0">
            <path class="cls-1" d="M558.17,625.57c-2.56,0-4.96-1-6.75-2.82l-21.1-21.33c-1.79-1.8-2.76-4.19-2.75-6.73.01-2.54,1.01-4.92,2.82-6.7l56.88-56.26c1.79-1.77,4.16-2.75,6.68-2.75s4.96,1,6.75,2.82l21.1,21.33c3.68,3.72,3.65,9.75-.07,13.44l-56.88,56.26c-1.79,1.77-4.16,2.75-6.68,2.75Z"/>
            <path d="M593.95,529.48h0c2.42,0,4.69.95,6.4,2.67l21.1,21.33c3.49,3.53,3.46,9.24-.07,12.73l-56.88,56.26c-1.7,1.68-3.94,2.6-6.33,2.6s-4.7-.95-6.4-2.67l-21.1-21.33c-3.49-3.53-3.46-9.24.07-12.73l56.88-56.26c1.7-1.68,3.94-2.6,6.33-2.6M593.95,528.48c-2.54,0-5.08.96-7.03,2.89l-56.88,56.26c-3.93,3.88-3.96,10.22-.08,14.14l21.1,21.33c1.96,1.98,4.53,2.97,7.11,2.97s5.08-.96,7.03-2.89l56.88-56.26c3.93-3.88,3.96-10.22.08-14.14l-21.1-21.33c-1.96-1.98-4.53-2.97-7.11-2.97h0Z"/>
          </g>
        </g>
        <g id="contraforts-3" data-name="contraforts">
          <g id="contrafort-0-3" data-name="contrafort-0">
            <path class="cls-1" d="M310.69,624.22c-2.56,0-4.96-1-6.75-2.82l-56.26-56.88c-3.68-3.72-3.65-9.75.07-13.43l21.33-21.1c1.79-1.77,4.16-2.75,6.68-2.75s4.96,1,6.75,2.82l56.26,56.88c1.78,1.8,2.76,4.19,2.75,6.73-.01,2.54-1.02,4.92-2.82,6.7l-21.33,21.1c-1.79,1.77-4.16,2.75-6.68,2.75Z"/>
            <path d="M275.76,527.75h0c2.42,0,4.69.95,6.4,2.67l56.26,56.88c1.69,1.71,2.61,3.97,2.6,6.38-.01,2.4-.96,4.66-2.67,6.35l-21.33,21.1c-1.7,1.68-3.94,2.6-6.33,2.6s-4.7-.95-6.4-2.67l-56.26-56.88c-3.49-3.53-3.46-9.24.07-12.73l21.33-21.1c1.7-1.68,3.94-2.6,6.33-2.6M275.76,526.75c-2.54,0-5.08.96-7.03,2.89l-21.33,21.1c-3.93,3.88-3.96,10.22-.08,14.14l56.26,56.88c1.96,1.98,4.53,2.97,7.11,2.97s5.08-.96,7.03-2.89l21.33-21.1c3.93-3.88,3.96-10.22.08-14.14l-56.26-56.88c-1.96-1.98-4.53-2.97-7.11-2.97h0Z"/>
          </g>
        </g>
        <g id="contraforts-4" data-name="contraforts">
          <g id="contrafort-0-4" data-name="contrafort-0">
            <path class="cls-1" d="M276.87,341.19c-2.56,0-4.96-1-6.75-2.82l-21.1-21.33c-3.68-3.72-3.65-9.75.07-13.43l56.88-56.26c1.79-1.77,4.16-2.75,6.68-2.75s4.96,1,6.75,2.82l21.1,21.33c1.78,1.8,2.76,4.19,2.75,6.73s-1.02,4.92-2.82,6.7l-56.88,56.26c-1.79,1.77-4.16,2.75-6.68,2.75Z"/>
            <path d="M312.65,245.1h0c2.42,0,4.69.95,6.4,2.67l21.1,21.33c1.69,1.71,2.61,3.97,2.6,6.38-.01,2.4-.96,4.66-2.67,6.35l-56.88,56.26c-1.7,1.68-3.94,2.6-6.33,2.6s-4.7-.95-6.4-2.67l-21.1-21.33c-3.49-3.53-3.46-9.24.07-12.73l56.88-56.26c1.7-1.68,3.94-2.6,6.33-2.6M312.65,244.1c-2.54,0-5.08.96-7.03,2.89l-56.88,56.26c-3.93,3.88-3.96,10.22-.08,14.14l21.1,21.33c1.96,1.98,4.53,2.97,7.11,2.97s5.08-.96,7.03-2.89l56.88-56.26c3.93-3.88,3.96-10.22.08-14.14l-21.1-21.33c-1.96-1.98-4.53-2.97-7.11-2.97h0Z"/>
          </g>
        </g>
        <g id="contraforts-5" data-name="contraforts">
          <g id="contrafort-0-5" data-name="contrafort-0">
            <path class="cls-1" d="M595.07,342.92c-2.56,0-4.96-1-6.75-2.82l-56.26-56.88c-1.79-1.8-2.76-4.19-2.75-6.73s1.01-4.92,2.82-6.7l21.33-21.1c1.79-1.77,4.16-2.75,6.68-2.75s4.96,1,6.75,2.82l56.26,56.88c3.68,3.72,3.65,9.75-.07,13.44l-21.33,21.1c-1.79,1.77-4.16,2.75-6.68,2.75Z"/>
            <path d="M560.13,246.45h0c2.42,0,4.69.95,6.4,2.67l56.26,56.88c1.69,1.71,2.61,3.97,2.6,6.38s-.96,4.66-2.67,6.35l-21.33,21.1c-1.7,1.68-3.94,2.6-6.33,2.6s-4.7-.95-6.4-2.67l-56.26-56.88c-1.69-1.71-2.61-3.97-2.6-6.38.01-2.4.96-4.66,2.67-6.35l21.33-21.1c1.7-1.68,3.94-2.6,6.33-2.6M560.13,245.45c-2.54,0-5.08.96-7.03,2.89l-21.33,21.1c-3.93,3.88-3.96,10.22-.08,14.14l56.26,56.88c1.96,1.98,4.53,2.97,7.11,2.97s5.08-.96,7.03-2.89l21.33-21.1c3.93-3.88,3.96-10.22.08-14.14l-56.26-56.88c-1.96-1.98-4.53-2.97-7.11-2.97h0Z"/>
          </g>
        </g>
      </g>
      <g>
        <g id="_x3C_Repetición_radial_x3E_-5" data-name="_x3C_Repetición_radial_x3E_">
          <g id="contraforts-6" data-name="contraforts">
            <g id="contrafort-0-6" data-name="contrafort-0">
              <path class="cls-1" d="M600.37,668.22c-2.56,0-4.96-1-6.75-2.82l-21.1-21.33c-3.68-3.72-3.65-9.75.07-13.44l56.88-56.26c1.79-1.77,4.16-2.75,6.68-2.75s4.96,1,6.75,2.82l21.1,21.33c1.78,1.8,2.76,4.19,2.75,6.73-.01,2.54-1.02,4.92-2.82,6.7l-56.88,56.26c-1.79,1.77-4.16,2.75-6.68,2.75Z"/>
              <path d="M636.15,572.14h0c2.42,0,4.69.95,6.4,2.67l21.1,21.33c1.69,1.71,2.61,3.97,2.6,6.38s-.96,4.66-2.67,6.35l-56.88,56.26c-1.7,1.68-3.94,2.6-6.33,2.6s-4.7-.95-6.4-2.67l-21.1-21.33c-3.49-3.53-3.46-9.24.07-12.73l56.88-56.26c1.7-1.68,3.94-2.6,6.33-2.6M636.15,571.14c-2.54,0-5.08.96-7.03,2.89l-56.88,56.26c-3.93,3.88-3.96,10.22-.08,14.14l21.1,21.33c1.96,1.98,4.53,2.97,7.11,2.97s5.08-.96,7.03-2.89l56.88-56.26c3.93-3.88,3.96-10.22.08-14.14l-21.1-21.33c-1.96-1.98-4.53-2.97-7.11-2.97h0Z"/>
            </g>
          </g>
        </g>
        <g id="_x3C_Repetición_radial_x3E_-6" data-name="_x3C_Repetición_radial_x3E_">
          <g id="contraforts-7" data-name="contraforts">
            <g id="contrafort-0-7" data-name="contrafort-0">
              <path class="cls-1" d="M268.03,666.42c-2.56,0-4.96-1-6.75-2.82l-56.26-56.88c-1.78-1.8-2.76-4.2-2.75-6.73.01-2.54,1.01-4.92,2.82-6.7l21.33-21.1c1.79-1.77,4.16-2.75,6.68-2.75s4.96,1,6.75,2.82l56.26,56.88c3.68,3.72,3.65,9.75-.07,13.44l-21.33,21.1c-1.79,1.77-4.16,2.75-6.68,2.75Z"/>
              <path d="M233.1,569.95h0c2.42,0,4.69.95,6.4,2.67l56.26,56.88c1.69,1.71,2.61,3.97,2.6,6.38-.01,2.4-.96,4.66-2.67,6.35l-21.33,21.1c-1.7,1.68-3.94,2.6-6.33,2.6s-4.7-.95-6.4-2.67l-56.26-56.88c-1.69-1.71-2.61-3.97-2.6-6.38.01-2.4.96-4.66,2.67-6.35l21.33-21.1c1.7-1.68,3.94-2.6,6.33-2.6M233.1,568.95c-2.54,0-5.08.96-7.03,2.89l-21.33,21.1c-3.93,3.88-3.96,10.22-.08,14.14l56.26,56.88c1.96,1.98,4.53,2.97,7.11,2.97s5.08-.96,7.03-2.89l21.33-21.1c3.93-3.88,3.96-10.22.08-14.14l-56.26-56.88c-1.96-1.98-4.53-2.97-7.11-2.97h0Z"/>
            </g>
          </g>
        </g>
        <g id="_x3C_Repetición_radial_x3E_-7" data-name="_x3C_Repetición_radial_x3E_">
          <g id="contraforts-8" data-name="contraforts">
            <g id="contrafort-0-8" data-name="contrafort-0">
              <path class="cls-1" d="M234.68,298.54c-2.56,0-4.96-1-6.75-2.82l-21.1-21.33c-3.68-3.72-3.65-9.75.07-13.44l56.88-56.26c1.79-1.77,4.16-2.75,6.68-2.75s4.96,1,6.75,2.82l21.1,21.33c1.78,1.8,2.76,4.2,2.75,6.73-.01,2.54-1.02,4.92-2.82,6.7l-56.88,56.26c-1.79,1.77-4.16,2.75-6.68,2.75Z"/>
              <path d="M270.46,202.45h0c2.42,0,4.69.95,6.4,2.67l21.1,21.33c3.49,3.53,3.46,9.24-.07,12.73l-56.88,56.26c-1.7,1.68-3.94,2.6-6.33,2.6s-4.7-.95-6.4-2.67l-21.1-21.33c-1.69-1.71-2.61-3.97-2.6-6.38.01-2.4.96-4.66,2.67-6.35l56.88-56.26c1.7-1.68,3.94-2.6,6.33-2.6M270.46,201.45c-2.54,0-5.08.96-7.03,2.89l-56.88,56.26c-3.93,3.88-3.96,10.22-.08,14.14l21.1,21.33c1.96,1.98,4.53,2.97,7.11,2.97s5.08-.96,7.03-2.89l56.88-56.26c3.93-3.88,3.96-10.22.08-14.14l-21.1-21.33c-1.96-1.98-4.53-2.97-7.11-2.97h0Z"/>
            </g>
          </g>
        </g>
        <g id="_x3C_Repetición_radial_x3E_-8" data-name="_x3C_Repetición_radial_x3E_">
          <g id="contraforts-9" data-name="contraforts">
            <g id="contrafort-0-9" data-name="contrafort-0">
              <path class="cls-1" d="M637.72,300.73c-2.56,0-4.96-1-6.75-2.82l-56.26-56.88c-3.68-3.72-3.65-9.75.07-13.44l21.33-21.1c1.79-1.77,4.16-2.75,6.68-2.75s4.96,1,6.75,2.82l56.26,56.88c1.79,1.8,2.76,4.2,2.75,6.73s-1.01,4.92-2.82,6.7l-21.33,21.1c-1.79,1.77-4.16,2.75-6.68,2.75Z"/>
              <path d="M602.79,204.26h0c2.42,0,4.69.95,6.4,2.67l56.26,56.88c3.49,3.53,3.46,9.24-.07,12.73l-21.33,21.1c-1.7,1.68-3.94,2.6-6.33,2.6s-4.7-.95-6.4-2.67l-56.26-56.88c-3.49-3.53-3.46-9.24.07-12.73l21.33-21.1c1.7-1.68,3.94-2.6,6.33-2.6M602.79,203.26c-2.54,0-5.08.96-7.03,2.89l-21.33,21.1c-3.93,3.88-3.96,10.22-.08,14.14l56.26,56.88c1.96,1.98,4.53,2.97,7.11,2.97s5.08-.96,7.03-2.89l21.33-21.1c3.93-3.88,3.96-10.22.08-14.14l-56.26-56.88c-1.96-1.98-4.53-2.97-7.11-2.97h0Z"/>
            </g>
          </g>
        </g>
      </g>
      <g>
        <g id="contraforts-10" data-name="contraforts">
          <g id="contrafort-0-10" data-name="contrafort-0">
            <path class="cls-1" d="M642.57,710.88c-2.56,0-4.96-1-6.75-2.82l-21.1-21.33c-3.68-3.72-3.65-9.75.07-13.44l56.88-56.26c1.79-1.77,4.16-2.75,6.68-2.75s4.96,1,6.75,2.82l21.1,21.33c3.68,3.72,3.65,9.75-.07,13.43l-56.88,56.26c-1.79,1.77-4.16,2.75-6.68,2.75Z"/>
            <path d="M678.34,614.79h0c2.42,0,4.69.95,6.4,2.67l21.1,21.33c1.69,1.71,2.61,3.97,2.6,6.38-.01,2.4-.96,4.66-2.67,6.35l-56.88,56.26c-1.7,1.68-3.94,2.6-6.33,2.6s-4.7-.95-6.4-2.67l-21.1-21.33c-3.49-3.53-3.46-9.24.07-12.73l56.88-56.26c1.7-1.68,3.94-2.6,6.33-2.6M678.34,613.79c-2.54,0-5.08.96-7.03,2.89l-56.88,56.26c-3.93,3.88-3.96,10.22-.08,14.14l21.1,21.33c1.96,1.98,4.53,2.97,7.11,2.97s5.08-.96,7.03-2.89l56.88-56.26c3.93-3.88,3.96-10.22.08-14.14l-21.1-21.33c-1.96-1.98-4.53-2.97-7.11-2.97h0Z"/>
          </g>
        </g>
        <g id="contraforts-11" data-name="contraforts">
          <g id="contrafort-0-11" data-name="contrafort-0">
            <path class="cls-1" d="M225.38,708.61c-2.56,0-4.96-1-6.75-2.82l-56.26-56.88c-1.78-1.8-2.76-4.19-2.75-6.73.01-2.54,1.02-4.92,2.82-6.7l21.33-21.1c1.79-1.77,4.16-2.75,6.68-2.75s4.96,1,6.75,2.82l56.26,56.88c3.68,3.72,3.65,9.75-.07,13.44l-21.33,21.1c-1.79,1.77-4.16,2.75-6.68,2.75Z"/>
            <path d="M190.45,612.14h0c2.42,0,4.69.95,6.4,2.67l56.26,56.88c3.49,3.53,3.46,9.24-.07,12.73l-21.33,21.1c-1.7,1.68-3.94,2.6-6.33,2.6s-4.7-.95-6.4-2.67l-56.26-56.88c-1.69-1.71-2.61-3.97-2.6-6.38.01-2.4.96-4.66,2.67-6.35l21.33-21.1c1.7-1.68,3.94-2.6,6.33-2.6M190.45,611.14c-2.54,0-5.08.96-7.03,2.89l-21.33,21.1c-3.93,3.88-3.96,10.22-.08,14.14l56.26,56.88c1.96,1.98,4.53,2.97,7.11,2.97s5.08-.96,7.03-2.89l21.33-21.1c3.93-3.88,3.96-10.22.08-14.14l-56.26-56.88c-1.96-1.98-4.53-2.97-7.11-2.97h0Z"/>
          </g>
        </g>
        <g id="contraforts-12" data-name="contraforts">
          <g id="contrafort-0-12" data-name="contrafort-0">
            <path class="cls-1" d="M192.48,255.88c-2.56,0-4.96-1-6.75-2.82l-21.1-21.33c-3.68-3.72-3.65-9.75.07-13.44l56.88-56.26c1.79-1.77,4.16-2.75,6.68-2.75s4.96,1,6.75,2.82l21.1,21.33c1.78,1.8,2.76,4.19,2.75,6.73s-1.02,4.92-2.82,6.7l-56.88,56.26c-1.79,1.77-4.16,2.75-6.68,2.75Z"/>
            <path d="M228.26,159.79h0c2.42,0,4.69.95,6.4,2.67l21.1,21.33c3.49,3.53,3.46,9.24-.07,12.73l-56.88,56.26c-1.7,1.68-3.94,2.6-6.33,2.6s-4.7-.95-6.4-2.67l-21.1-21.33c-3.49-3.53-3.46-9.24.07-12.73l56.88-56.26c1.7-1.68,3.94-2.6,6.33-2.6M228.26,158.79c-2.54,0-5.08.96-7.03,2.89l-56.88,56.26c-3.93,3.88-3.96,10.22-.08,14.14l21.1,21.33c1.96,1.98,4.53,2.97,7.11,2.97s5.08-.96,7.03-2.89l56.88-56.26c3.93-3.88,3.96-10.22.08-14.14l-21.1-21.33c-1.96-1.98-4.53-2.97-7.11-2.97h0Z"/>
          </g>
        </g>
        <g id="contraforts-13" data-name="contraforts">
          <g id="contrafort-0-13" data-name="contrafort-0">
            <path class="cls-1" d="M680.38,258.53c-2.56,0-4.96-1-6.75-2.82l-56.26-56.88c-1.78-1.8-2.76-4.19-2.75-6.73s1.02-4.92,2.82-6.7l21.33-21.1c1.79-1.77,4.16-2.75,6.68-2.75s4.96,1,6.75,2.82l56.26,56.88c3.68,3.72,3.65,9.75-.07,13.44l-21.33,21.1c-1.79,1.77-4.16,2.75-6.68,2.75Z"/>
            <path d="M645.45,162.06h0c2.42,0,4.69.95,6.4,2.67l56.26,56.88c3.49,3.53,3.46,9.24-.07,12.73l-21.33,21.1c-1.7,1.68-3.94,2.6-6.33,2.6s-4.7-.95-6.4-2.67l-56.26-56.88c-3.49-3.53-3.46-9.24.07-12.73l21.33-21.1c1.7-1.68,3.94-2.6,6.33-2.6M645.45,161.06c-2.54,0-5.08.96-7.03,2.89l-21.33,21.1c-3.93,3.88-3.96,10.22-.08,14.14l56.26,56.88c1.96,1.98,4.53,2.97,7.11,2.97s5.08-.96,7.03-2.89l21.33-21.1c3.93-3.88,3.96-10.22.08-14.14l-56.26-56.88c-1.96-1.98-4.53-2.97-7.11-2.97h0Z"/>
          </g>
        </g>
      </g>
      <g>
        <g id="contraforts-14" data-name="contraforts">
          <g id="contrafort-0-14" data-name="contrafort-0">
            <path class="cls-1" d="M684.76,753.54c-2.56,0-4.96-1-6.75-2.82l-21.1-21.33c-3.68-3.72-3.65-9.75.07-13.43l56.88-56.26c1.79-1.77,4.16-2.75,6.68-2.75s4.96,1,6.75,2.82l21.1,21.33c3.68,3.72,3.65,9.75-.07,13.43l-56.88,56.26c-1.79,1.77-4.16,2.75-6.68,2.75Z"/>
            <path d="M720.54,657.45h0c2.42,0,4.69.95,6.4,2.67l21.1,21.33c3.49,3.53,3.46,9.24-.07,12.73l-56.88,56.26c-1.7,1.68-3.94,2.6-6.33,2.6s-4.7-.95-6.4-2.67l-21.1-21.33c-1.69-1.71-2.61-3.97-2.6-6.38s.96-4.66,2.67-6.35l56.88-56.26c1.7-1.68,3.94-2.6,6.33-2.6M720.54,656.45c-2.54,0-5.08.96-7.03,2.89l-56.88,56.26c-3.93,3.88-3.96,10.22-.08,14.14l21.1,21.33c1.96,1.98,4.53,2.97,7.11,2.97s5.08-.96,7.03-2.89l56.88-56.26c3.93-3.88,3.96-10.22.08-14.14l-21.1-21.33c-1.96-1.98-4.53-2.97-7.11-2.97h0Z"/>
          </g>
        </g>
        <g id="contraforts-15" data-name="contraforts">
          <g id="contrafort-0-15" data-name="contrafort-0">
            <path class="cls-1" d="M182.72,750.81c-2.56,0-4.96-1-6.75-2.82l-56.26-56.88c-1.78-1.8-2.76-4.19-2.75-6.73.01-2.54,1.01-4.92,2.82-6.7l21.33-21.1c1.79-1.77,4.16-2.75,6.68-2.75s4.96,1,6.75,2.82l56.26,56.88c3.68,3.72,3.65,9.75-.07,13.43l-21.33,21.1c-1.79,1.77-4.16,2.75-6.68,2.75Z"/>
            <path d="M147.79,654.34h0c2.42,0,4.69.95,6.4,2.67l56.26,56.88c1.69,1.71,2.61,3.97,2.6,6.38-.01,2.4-.96,4.66-2.67,6.35l-21.33,21.1c-1.7,1.68-3.94,2.6-6.33,2.6s-4.7-.95-6.4-2.67l-56.26-56.88c-1.69-1.71-2.61-3.97-2.6-6.38.01-2.4.96-4.66,2.67-6.35l21.33-21.1c1.7-1.68,3.94-2.6,6.33-2.6M147.79,653.34c-2.54,0-5.08.96-7.03,2.89l-21.33,21.1c-3.93,3.88-3.96,10.22-.08,14.14l56.26,56.88c1.96,1.98,4.53,2.97,7.11,2.97s5.08-.96,7.03-2.89l21.33-21.1c3.93-3.88,3.96-10.22.08-14.14l-56.26-56.88c-1.96-1.98-4.53-2.97-7.11-2.97h0Z"/>
          </g>
        </g>
        <g id="contraforts-16" data-name="contraforts">
          <g id="contrafort-0-16" data-name="contrafort-0">
            <path class="cls-1" d="M150.29,213.22c-2.56,0-4.96-1-6.75-2.82l-21.1-21.33c-1.78-1.8-2.76-4.19-2.75-6.73.01-2.54,1.02-4.92,2.82-6.7l56.88-56.26c1.79-1.77,4.16-2.75,6.68-2.75s4.96,1,6.75,2.82l21.1,21.33c3.68,3.72,3.65,9.75-.07,13.44l-56.88,56.26c-1.79,1.77-4.16,2.75-6.68,2.75Z"/>
            <path d="M186.07,117.14h0c2.42,0,4.69.95,6.4,2.67l21.1,21.33c3.49,3.53,3.46,9.24-.07,12.73l-56.88,56.26c-1.7,1.68-3.94,2.6-6.33,2.6s-4.7-.95-6.4-2.67l-21.1-21.33c-1.69-1.71-2.61-3.97-2.6-6.38.01-2.4.96-4.66,2.67-6.35l56.88-56.26c1.7-1.68,3.94-2.6,6.33-2.6M186.07,116.14c-2.54,0-5.08.96-7.03,2.89l-56.88,56.26c-3.93,3.88-3.96,10.22-.08,14.14l21.1,21.33c1.96,1.98,4.53,2.97,7.11,2.97s5.08-.96,7.03-2.89l56.88-56.26c3.93-3.88,3.96-10.22.08-14.14l-21.1-21.33c-1.96-1.98-4.53-2.97-7.11-2.97h0Z"/>
          </g>
        </g>
        <g id="contraforts-17" data-name="contraforts">
          <g id="contrafort-0-17" data-name="contrafort-0">
            <path class="cls-1" d="M723.04,216.34c-2.56,0-4.96-1-6.75-2.82l-56.26-56.88c-1.78-1.8-2.76-4.2-2.75-6.73s1.02-4.92,2.82-6.7l21.33-21.1c1.79-1.77,4.16-2.75,6.68-2.75s4.96,1,6.75,2.82l56.26,56.88c3.68,3.72,3.65,9.75-.07,13.44l-21.33,21.1c-1.79,1.77-4.16,2.75-6.68,2.75Z"/>
            <path d="M688.1,119.86h0c2.42,0,4.69.95,6.4,2.67l56.26,56.88c1.69,1.71,2.61,3.97,2.6,6.38-.01,2.4-.96,4.66-2.67,6.35l-21.33,21.1c-1.7,1.68-3.94,2.6-6.33,2.6s-4.7-.95-6.4-2.67l-56.26-56.88c-3.49-3.53-3.46-9.24.07-12.73l21.33-21.1c1.7-1.68,3.94-2.6,6.33-2.6M688.1,118.86c-2.54,0-5.08.96-7.03,2.89l-21.33,21.1c-3.93,3.88-3.96,10.22-.08,14.14l56.26,56.88c1.96,1.98,4.53,2.97,7.11,2.97s5.08-.96,7.03-2.89l21.33-21.1c3.93-3.88,3.96-10.22.08-14.14l-56.26-56.88c-1.96-1.98-4.53-2.97-7.11-2.97h0Z"/>
          </g>
        </g>
      </g>
      <g>
        <g id="contraforts-18" data-name="contraforts">
          <g id="contrafort-0-18" data-name="contrafort-0">
            <path class="cls-1" d="M726.96,796.19c-2.56,0-4.96-1-6.75-2.82l-21.1-21.33c-3.68-3.72-3.65-9.75.07-13.43l56.88-56.26c1.79-1.77,4.16-2.75,6.68-2.75s4.96,1,6.75,2.82l21.1,21.33c3.68,3.72,3.65,9.75-.07,13.44l-56.88,56.26c-1.79,1.77-4.16,2.75-6.68,2.75Z"/>
            <path d="M762.73,700.11h0c2.42,0,4.69.95,6.4,2.67l21.1,21.33c3.49,3.53,3.46,9.24-.07,12.73l-56.88,56.26c-1.7,1.68-3.94,2.6-6.33,2.6s-4.7-.95-6.4-2.67l-21.1-21.33c-3.49-3.53-3.46-9.24.07-12.73l56.88-56.26c1.7-1.68,3.94-2.6,6.33-2.6M762.73,699.11c-2.54,0-5.08.96-7.03,2.89l-56.88,56.26c-3.93,3.88-3.96,10.22-.08,14.14l21.1,21.33c1.96,1.98,4.53,2.97,7.11,2.97s5.08-.96,7.03-2.89l56.88-56.26c3.93-3.88,3.96-10.22.08-14.14l-21.1-21.33c-1.96-1.98-4.53-2.97-7.11-2.97h0Z"/>
          </g>
        </g>
        <g id="contraforts-19" data-name="contraforts">
          <g id="contrafort-0-19" data-name="contrafort-0">
            <path class="cls-1" d="M140.07,793c-2.56,0-4.96-1-6.75-2.82l-56.26-56.88c-3.68-3.72-3.65-9.75.07-13.43l21.33-21.1c1.79-1.77,4.16-2.75,6.68-2.75s4.96,1,6.75,2.82l56.26,56.88c1.78,1.8,2.76,4.19,2.75,6.73-.01,2.54-1.01,4.92-2.82,6.7l-21.33,21.1c-1.79,1.77-4.16,2.75-6.68,2.75Z"/>
            <path d="M105.13,696.53h0c2.42,0,4.69.95,6.4,2.67l56.26,56.88c1.69,1.71,2.61,3.97,2.6,6.38-.01,2.4-.96,4.66-2.67,6.35l-21.33,21.1c-1.7,1.68-3.94,2.6-6.33,2.6s-4.7-.95-6.4-2.67l-56.26-56.88c-3.49-3.53-3.46-9.24.07-12.73l21.33-21.1c1.7-1.68,3.94-2.6,6.33-2.6M105.13,695.53c-2.54,0-5.08.96-7.03,2.89l-21.33,21.1c-3.93,3.88-3.96,10.22-.08,14.14l56.26,56.88c1.96,1.98,4.53,2.97,7.11,2.97s5.08-.96,7.03-2.89l21.33-21.1c3.93-3.88,3.96-10.22.08-14.14l-56.26-56.88c-1.96-1.98-4.53-2.97-7.11-2.97h0Z"/>
          </g>
        </g>
        <g id="contraforts-20" data-name="contraforts">
          <g id="contrafort-0-20" data-name="contrafort-0">
            <path class="cls-1" d="M108.09,170.57c-2.56,0-4.96-1-6.75-2.82l-21.1-21.33c-3.68-3.72-3.65-9.75.07-13.44l56.88-56.26c1.79-1.77,4.16-2.75,6.68-2.75s4.96,1,6.75,2.82l21.1,21.33c3.68,3.72,3.65,9.75-.07,13.44l-56.88,56.26c-1.79,1.77-4.16,2.75-6.68,2.75Z"/>
            <path d="M143.87,74.48h0c2.42,0,4.69.95,6.4,2.67l21.1,21.33c1.69,1.71,2.61,3.97,2.6,6.38-.01,2.4-.96,4.66-2.67,6.35l-56.88,56.26c-1.7,1.68-3.94,2.6-6.33,2.6s-4.7-.95-6.4-2.67l-21.1-21.33c-3.49-3.53-3.46-9.24.07-12.73l56.88-56.26c1.7-1.68,3.94-2.6,6.33-2.6M143.87,73.48c-2.54,0-5.08.96-7.03,2.89l-56.88,56.26c-3.93,3.88-3.96,10.22-.08,14.14l21.1,21.33c1.96,1.98,4.53,2.97,7.11,2.97s5.08-.96,7.03-2.89l56.88-56.26c3.93-3.88,3.96-10.22.08-14.14l-21.1-21.33c-1.96-1.98-4.53-2.97-7.11-2.97h0Z"/>
          </g>
        </g>
        <g id="contraforts-21" data-name="contraforts">
          <g id="contrafort-0-21" data-name="contrafort-0">
            <path class="cls-1" d="M765.69,174.14c-2.56,0-4.96-1-6.75-2.82l-56.26-56.88c-3.68-3.72-3.65-9.75.07-13.44l21.33-21.1c1.79-1.77,4.16-2.75,6.68-2.75s4.96,1,6.75,2.82l56.26,56.88c1.78,1.8,2.76,4.19,2.75,6.73s-1.02,4.92-2.82,6.7l-21.33,21.1c-1.79,1.77-4.16,2.75-6.68,2.75Z"/>
            <path d="M730.76,77.67h0c2.42,0,4.69.95,6.4,2.67l56.26,56.88c3.49,3.53,3.46,9.24-.07,12.73l-21.33,21.1c-1.7,1.68-3.94,2.6-6.33,2.6s-4.7-.95-6.4-2.67l-56.26-56.88c-1.69-1.71-2.61-3.97-2.6-6.38s.96-4.66,2.67-6.35l21.33-21.1c1.7-1.68,3.94-2.6,6.33-2.6M730.76,76.67c-2.54,0-5.08.96-7.03,2.89l-21.33,21.1c-3.93,3.88-3.96,10.22-.08,14.14l56.26,56.88c1.96,1.98,4.53,2.97,7.11,2.97s5.08-.96,7.03-2.89l21.33-21.1c3.93-3.88,3.96-10.22.08-14.14l-56.26-56.88c-1.96-1.98-4.53-2.97-7.11-2.97h0Z"/>
          </g>
        </g>
      </g>
    </g>
    <g>
      <g id="crosses">
        <g id="contraforts-22" data-name="contraforts">
          <g id="contrafort-0-22" data-name="contrafort-0">
            <rect class="cls-1" x="510.91" y="373.09" width="49" height="124" rx="9.5" ry="9.5"/>
            <path d="M550.41,373.59c4.96,0,9,4.04,9,9v105c0,4.96-4.04,9-9,9h-30c-4.96,0-9-4.04-9-9v-105c0-4.96,4.04-9,9-9h30M550.41,372.59h-30c-5.52,0-10,4.48-10,10v105c0,5.52,4.48,10,10,10h30c5.52,0,10-4.48,10-10v-105c0-5.52-4.48-10-10-10h0Z"/>
          </g>
        </g>
      </g>
      <g id="crosses-2" data-name="crosses">
        <g id="contraforts-23" data-name="contraforts">
          <g id="contrafort-0-23" data-name="contrafort-0">
            <rect class="cls-1" x="310.91" y="373.09" width="49" height="124" rx="9.5" ry="9.5"/>
            <path d="M350.41,373.59c4.96,0,9,4.04,9,9v105c0,4.96-4.04,9-9,9h-30c-4.96,0-9-4.04-9-9v-105c0-4.96,4.04-9,9-9h30M350.41,372.59h-30c-5.52,0-10,4.48-10,10v105c0,5.52,4.48,10,10,10h30c5.52,0,10-4.48,10-10v-105c0-5.52-4.48-10-10-10h0Z"/>
          </g>
        </g>
      </g>
    </g>
  </g>
  <g id="text">
    <g>
      <g id="crosses-3" data-name="crosses">
        <text class="cls-2" transform="translate(530.9 431.83) rotate(90)"><tspan x="0" y="0">ROGER</tspan></text>
      </g>
      <g id="crosses-4" data-name="crosses">
        <text class="cls-2" transform="translate(339.93 438.35) rotate(-90)"><tspan x="0" y="0">ROGER</tspan></text>
      </g>
    </g>
    <g id="text-baixos">
      <text id="text-baix-0" class="cls-2" transform="translate(431.74 438.75)"><tspan x="0" y="0">ROGER</tspan></text>
    </g>
    <g id="text-contraforts">
      <text id="text-contrafort-0" class="cls-2" transform="translate(432.15 378.79)"><tspan x="0" y="0">ROGER</tspan></text>
    </g>
    <g id="text-agulles">
      <text id="text-agulla-0" class="cls-2" transform="translate(438.26 491.25) rotate(-180)"><tspan x="0" y="0">ROGER</tspan></text>
    </g>
    <g id="text-rengles">
      <g>
        <g id="_x3C_Repetición_radial_x3E_-9" data-name="_x3C_Repetición_radial_x3E_">
          <g id="rengles-22" data-name="rengles">
            <text class="cls-2" transform="translate(438.26 600.75) rotate(-180)"><tspan x="0" y="0">ROGER</tspan></text>
          </g>
        </g>
        <g id="_x3C_Repetición_radial_x3E_-10" data-name="_x3C_Repetición_radial_x3E_">
          <g id="rengles-23" data-name="rengles">
            <text class="cls-2" transform="translate(268.75 437.76) rotate(-90)"><tspan x="0" y="0">ROGER</tspan></text>
          </g>
        </g>
        <g id="_x3C_Repetición_radial_x3E_-11" data-name="_x3C_Repetición_radial_x3E_">
          <g id="rengles-24" data-name="rengles">
            <text class="cls-2" transform="translate(431.74 268.25)"><tspan x="0" y="0">ROGER</tspan></text>
          </g>
        </g>
        <g id="_x3C_Repetición_radial_x3E_-12" data-name="_x3C_Repetición_radial_x3E_">
          <g id="rengles-25" data-name="rengles">
            <text class="cls-2" transform="translate(601.25 431.24) rotate(90)"><tspan x="0" y="0">ROGER</tspan></text>
          </g>
        </g>
      </g>
      <g>
        <g id="rengles-26" data-name="rengles">
          <text class="cls-2" transform="translate(438.57 660.86) rotate(-180)"><tspan x="0" y="0">ROGER</tspan></text>
        </g>
        <g id="rengles-27" data-name="rengles">
          <text class="cls-2" transform="translate(209.05 437.87) rotate(-90)"><tspan x="0" y="0">ROGER</tspan></text>
        </g>
        <g id="rengles-28" data-name="rengles">
          <text class="cls-2" transform="translate(432.04 208.36)"><tspan x="0" y="0">ROGER</tspan></text>
        </g>
        <g id="rengles-29" data-name="rengles">
          <text class="cls-2" transform="translate(661.55 431.35) rotate(90)"><tspan x="0" y="0">ROGER</tspan></text>
        </g>
      </g>
      <g>
        <g id="rengles-30" data-name="rengles">
          <text class="cls-2" transform="translate(438.26 721.25) rotate(-180)"><tspan x="0" y="0">ROGER</tspan></text>
        </g>
        <g id="rengles-31" data-name="rengles">
          <text class="cls-2" transform="translate(148.75 438.26) rotate(-90)"><tspan x="0" y="0">ROGER</tspan></text>
        </g>
        <g id="rengles-32" data-name="rengles">
          <text class="cls-2" transform="translate(431.74 148.75)"><tspan x="0" y="0">ROGER</tspan></text>
        </g>
        <g id="rengles-33" data-name="rengles">
          <text class="cls-2" transform="translate(721.25 431.74) rotate(90)"><tspan x="0" y="0">ROGER</tspan></text>
        </g>
      </g>
      <g>
        <g id="rengles-34" data-name="rengles">
          <text class="cls-2" transform="translate(438.26 781.25) rotate(-180)"><tspan x="0" y="0">ROGER</tspan></text>
        </g>
        <g id="rengles-35" data-name="rengles">
          <text class="cls-2" transform="translate(88.75 438.26) rotate(-90)"><tspan x="0" y="0">ROGER</tspan></text>
        </g>
        <g id="rengles-36" data-name="rengles">
          <text class="cls-2" transform="translate(431.74 88.75)"><tspan x="0" y="0">ROGER</tspan></text>
        </g>
        <g id="rengles-37" data-name="rengles">
          <text class="cls-2" transform="translate(781.25 431.74) rotate(90)"><tspan x="0" y="0">ROGER</tspan></text>
        </g>
      </g>
      <g>
        <g id="rengles-38" data-name="rengles">
          <text class="cls-2" transform="translate(438.26 841.25) rotate(-180)"><tspan x="0" y="0">ROGER</tspan></text>
        </g>
        <g id="rengles-39" data-name="rengles">
          <text class="cls-2" transform="translate(28.75 438.26) rotate(-90)"><tspan x="0" y="0">ROGER</tspan></text>
        </g>
        <g id="rengles-40" data-name="rengles">
          <text class="cls-2" transform="translate(431.74 28.75)"><tspan x="0" y="0">ROGER</tspan></text>
        </g>
        <g id="rengles-41" data-name="rengles">
          <text class="cls-2" transform="translate(841.25 431.74) rotate(90)"><tspan x="0" y="0">ROGER</tspan></text>
        </g>
      </g>
    </g>
    <g id="text-laterals">
      <g>
        <g id="contraforts-24" data-name="contraforts">
          <text class="cls-2" transform="translate(575.33 572.23) rotate(135.31)"><tspan x="0" y="0">ROGER</tspan></text>
        </g>
        <g id="contraforts-25" data-name="contraforts">
          <text class="cls-2" transform="translate(297.77 575.33) rotate(-134.69)"><tspan x="0" y="0">ROGER</tspan></text>
        </g>
        <g id="contraforts-26" data-name="contraforts">
          <text class="cls-2" transform="translate(294.67 297.77) rotate(-44.69)"><tspan x="0" y="0">ROGER</tspan></text>
        </g>
        <g id="contraforts-27" data-name="contraforts">
          <text class="cls-2" transform="translate(572.23 294.67) rotate(45.31)"><tspan x="0" y="0">ROGER</tspan></text>
        </g>
      </g>
      <g>
        <g id="_x3C_Repetición_radial_x3E_-13" data-name="_x3C_Repetición_radial_x3E_">
          <g id="contraforts-28" data-name="contraforts">
            <text class="cls-2" transform="translate(617.53 614.89) rotate(135.31)"><tspan x="0" y="0">ROGER</tspan></text>
          </g>
        </g>
        <g id="_x3C_Repetición_radial_x3E_-14" data-name="_x3C_Repetición_radial_x3E_">
          <g id="contraforts-29" data-name="contraforts">
            <text class="cls-2" transform="translate(255.11 617.53) rotate(-134.69)"><tspan x="0" y="0">ROGER</tspan></text>
          </g>
        </g>
        <g id="_x3C_Repetición_radial_x3E_-15" data-name="_x3C_Repetición_radial_x3E_">
          <g id="contraforts-30" data-name="contraforts">
            <text class="cls-2" transform="translate(252.47 255.11) rotate(-44.69)"><tspan x="0" y="0">ROGER</tspan></text>
          </g>
        </g>
        <g id="_x3C_Repetición_radial_x3E_-16" data-name="_x3C_Repetición_radial_x3E_">
          <g id="contraforts-31" data-name="contraforts">
            <text class="cls-2" transform="translate(614.89 252.47) rotate(45.31)"><tspan x="0" y="0">ROGER</tspan></text>
          </g>
        </g>
      </g>
      <g>
        <g id="contraforts-32" data-name="contraforts">
          <text class="cls-2" transform="translate(659.72 657.54) rotate(135.31)"><tspan x="0" y="0">ROGER</tspan></text>
        </g>
        <g id="contraforts-33" data-name="contraforts">
          <text class="cls-2" transform="translate(212.46 659.72) rotate(-134.69)"><tspan x="0" y="0">ROGER</tspan></text>
        </g>
        <g id="contraforts-34" data-name="contraforts">
          <text class="cls-2" transform="translate(210.28 212.46) rotate(-44.69)"><tspan x="0" y="0">ROGER</tspan></text>
        </g>
        <g id="contraforts-35" data-name="contraforts">
          <text class="cls-2" transform="translate(657.54 210.28) rotate(45.31)"><tspan x="0" y="0">ROGER</tspan></text>
        </g>
      </g>
      <g>
        <g id="contraforts-36" data-name="contraforts">
          <text class="cls-2" transform="translate(701.92 700.2) rotate(135.31)"><tspan x="0" y="0">ROGER</tspan></text>
        </g>
        <g id="contraforts-37" data-name="contraforts">
          <text class="cls-2" transform="translate(169.8 701.91) rotate(-134.69)"><tspan x="0" y="0">ROGER</tspan></text>
        </g>
        <g id="contraforts-38" data-name="contraforts">
          <text class="cls-2" transform="translate(168.08 169.8) rotate(-44.69)"><tspan x="0" y="0">ROGER</tspan></text>
        </g>
        <g id="contraforts-39" data-name="contraforts">
          <text class="cls-2" transform="translate(700.2 168.08) rotate(45.31)"><tspan x="0" y="0">ROGER</tspan></text>
        </g>
      </g>
      <g>
        <g id="contraforts-40" data-name="contraforts">
          <text class="cls-2" transform="translate(744.11 742.86) rotate(135.31)"><tspan x="0" y="0">ROGER</tspan></text>
        </g>
        <g id="contraforts-41" data-name="contraforts">
          <text class="cls-2" transform="translate(127.14 744.11) rotate(-134.69)"><tspan x="0" y="0">ROGER</tspan></text>
        </g>
        <g id="contraforts-42" data-name="contraforts">
          <text class="cls-2" transform="translate(125.89 127.14) rotate(-44.69)"><tspan x="0" y="0">ROGER</tspan></text>
        </g>
        <g id="contraforts-43" data-name="contraforts">
          <text class="cls-2" transform="translate(742.85 125.89) rotate(45.31)"><tspan x="0" y="0">ROGER</tspan></text>
        </g>
      </g>
    </g>
  </g>
</svg>