<?xml version="1.0" encoding="UTF-8"?>
<svg id="Capa_1" xmlns="http://www.w3.org/2000/svg" viewBox="0 0 870 870">
  <defs>
    <style>
      .cls-1 {
        fill: #fff;
      }
    </style>
  </defs>
  <g id="baixos">
    <g id="baix-0">
      <rect class="cls-1" x="373.5" y="411" width="123" height="48" rx="9" ry="9"/>
      <path d="M487.5,412c4.41,0,8,3.59,8,8v30c0,4.41-3.59,8-8,8h-105c-4.41,0-8-3.59-8-8v-30c0-4.41,3.59-8,8-8h105M487.5,410h-105c-5.52,0-10,4.48-10,10v30c0,5.52,4.48,10,10,10h105c5.52,0,10-4.48,10-10v-30c0-5.52-4.48-10-10-10h0Z"/>
    </g>
  </g>
  <g id="contraforts">
    <g id="contrafort-0">
      <rect class="cls-1" x="373" y="350.5" width="124" height="49" rx="9.5" ry="9.5"/>
      <path d="M487.5,351c4.96,0,9,4.04,9,9v30c0,4.96-4.04,9-9,9h-105c-4.96,0-9-4.04-9-9v-30c0-4.96,4.04-9,9-9h105M487.5,350h-105c-5.52,0-10,4.48-10,10v30c0,5.52,4.48,10,10,10h105c5.52,0,10-4.48,10-10v-30c0-5.52-4.48-10-10-10h0Z"/>
    </g>
  </g>
  <g id="agulles">
    <g id="agulla-0">
      <rect class="cls-1" x="373" y="470.5" width="124" height="49" rx="9.5" ry="9.5"/>
      <path d="M487.5,471c4.96,0,9,4.04,9,9v30c0,4.96-4.04,9-9,9h-105c-4.96,0-9-4.04-9-9v-30c0-4.96,4.04-9,9-9h105M487.5,470h-105c-5.52,0-10,4.48-10,10v30c0,5.52,4.48,10,10,10h105c5.52,0,10-4.48,10-10v-30c0-5.52-4.48-10-10-10h0Z"/>
    </g>
  </g>
  <g id="crosses">
    <g id="crossa-0">
      <rect class="cls-1" x="310.5" y="385.5" width="49" height="99" rx="4.5" ry="4.5"/>
      <path d="M355,386c2.21,0,4,1.79,4,4v90c0,2.21-1.79,4-4,4h-40c-2.21,0-4-1.79-4-4v-90c0-2.21,1.79-4,4-4h40M355,385h-40c-2.76,0-5,2.24-5,5v90c0,2.76,2.24,5,5,5h40c2.76,0,5-2.24,5-5v-90c0-2.76-2.24-5-5-5h0Z"/>
    </g>
    <g id="crossa-1">
      <rect class="cls-1" x="510.5" y="385.5" width="49" height="99" rx="9.5" ry="9.5"/>
      <path d="M550,386c4.96,0,9,4.04,9,9v80c0,4.96-4.04,9-9,9h-30c-4.96,0-9-4.04-9-9v-80c0-4.96,4.04-9,9-9h30M550,385h-30c-5.52,0-10,4.48-10,10v80c0,5.52,4.48,10,10,10h30c5.52,0,10-4.48,10-10v-80c0-5.52-4.48-10-10-10h0Z"/>
    </g>
  </g>
  <g id="rengles">
    <g>
      <g id="rengles-2" data-name="rengles">
        <g id="rengla-0">
          <rect class="cls-1" x="373" y="580" width="124" height="49" rx="9.5" ry="9.5"/>
          <path d="M487.5,580.5c4.96,0,9,4.04,9,9v30c0,4.96-4.04,9-9,9h-105c-4.96,0-9-4.04-9-9v-30c0-4.96,4.04-9,9-9h105M487.5,579.5h-105c-5.52,0-10,4.48-10,10v30c0,5.52,4.48,10,10,10h105c5.52,0,10-4.48,10-10v-30c0-5.52-4.48-10-10-10h0Z"/>
        </g>
      </g>
      <g id="rengles-3" data-name="rengles">
        <g id="rengla-0-2" data-name="rengla-0">
          <rect class="cls-1" x="240.5" y="372.5" width="49" height="124" rx="9.5" ry="9.5"/>
          <path d="M280,373c4.96,0,9,4.04,9,9v105c0,4.96-4.04,9-9,9h-30c-4.96,0-9-4.04-9-9v-105c0-4.96,4.04-9,9-9h30M280,372h-30c-5.52,0-10,4.48-10,10v105c0,5.52,4.48,10,10,10h30c5.52,0,10-4.48,10-10v-105c0-5.52-4.48-10-10-10h0Z"/>
        </g>
      </g>
      <g id="rengles-4" data-name="rengles">
        <g id="rengla-0-3" data-name="rengla-0">
          <rect class="cls-1" x="373" y="240" width="124" height="49" rx="9.5" ry="9.5"/>
          <path d="M487.5,240.5c4.96,0,9,4.04,9,9v30c0,4.96-4.04,9-9,9h-105c-4.96,0-9-4.04-9-9v-30c0-4.96,4.04-9,9-9h105M487.5,239.5h-105c-5.52,0-10,4.48-10,10v30c0,5.52,4.48,10,10,10h105c5.52,0,10-4.48,10-10v-30c0-5.52-4.48-10-10-10h0Z"/>
        </g>
      </g>
      <g id="rengles-5" data-name="rengles">
        <g id="rengla-0-4" data-name="rengla-0">
          <rect class="cls-1" x="580.5" y="372.5" width="49" height="124" rx="9.5" ry="9.5"/>
          <path d="M620,373c4.96,0,9,4.04,9,9v105c0,4.96-4.04,9-9,9h-30c-4.96,0-9-4.04-9-9v-105c0-4.96,4.04-9,9-9h30M620,372h-30c-5.52,0-10,4.48-10,10v105c0,5.52,4.48,10,10,10h30c5.52,0,10-4.48,10-10v-105c0-5.52-4.48-10-10-10h0Z"/>
        </g>
      </g>
    </g>
    <g>
      <g id="rengles-6" data-name="rengles">
        <g id="rengla-0-5" data-name="rengla-0">
          <rect class="cls-1" x="373.3" y="640.11" width="124" height="49" rx="9.5" ry="9.5"/>
          <path d="M487.8,640.61c4.96,0,9,4.04,9,9v30c0,4.96-4.04,9-9,9h-105c-4.96,0-9-4.04-9-9v-30c0-4.96,4.04-9,9-9h105M487.8,639.61h-105c-5.52,0-10,4.48-10,10v30c0,5.52,4.48,10,10,10h105c5.52,0,10-4.48,10-10v-30c0-5.52-4.48-10-10-10h0Z"/>
        </g>
      </g>
      <g id="rengles-7" data-name="rengles">
        <g id="rengla-0-6" data-name="rengla-0">
          <rect class="cls-1" x="180.8" y="372.61" width="49" height="124" rx="9.5" ry="9.5"/>
          <path d="M220.3,373.11c4.96,0,9,4.04,9,9v105c0,4.96-4.04,9-9,9h-30c-4.96,0-9-4.04-9-9v-105c0-4.96,4.04-9,9-9h30M220.3,372.11h-30c-5.52,0-10,4.48-10,10v105c0,5.52,4.48,10,10,10h30c5.52,0,10-4.48,10-10v-105c0-5.52-4.48-10-10-10h0Z"/>
        </g>
      </g>
      <g id="rengles-8" data-name="rengles">
        <g id="rengla-0-7" data-name="rengla-0">
          <rect class="cls-1" x="373.3" y="180.11" width="124" height="49" rx="9.5" ry="9.5"/>
          <path d="M487.8,180.61c4.96,0,9,4.04,9,9v30c0,4.96-4.04,9-9,9h-105c-4.96,0-9-4.04-9-9v-30c0-4.96,4.04-9,9-9h105M487.8,179.61h-105c-5.52,0-10,4.48-10,10v30c0,5.52,4.48,10,10,10h105c5.52,0,10-4.48,10-10v-30c0-5.52-4.48-10-10-10h0Z"/>
        </g>
      </g>
      <g id="rengles-9" data-name="rengles">
        <g id="rengla-0-8" data-name="rengla-0">
          <rect class="cls-1" x="640.8" y="372.61" width="49" height="124" rx="9.5" ry="9.5"/>
          <path d="M680.3,373.11c4.96,0,9,4.04,9,9v105c0,4.96-4.04,9-9,9h-30c-4.96,0-9-4.04-9-9v-105c0-4.96,4.04-9,9-9h30M680.3,372.11h-30c-5.52,0-10,4.48-10,10v105c0,5.52,4.48,10,10,10h30c5.52,0,10-4.48,10-10v-105c0-5.52-4.48-10-10-10h0Z"/>
        </g>
      </g>
    </g>
    <g>
      <g id="rengles-10" data-name="rengles">
        <g id="rengla-0-9" data-name="rengla-0">
          <rect class="cls-1" x="373" y="700.5" width="124" height="49" rx="9.5" ry="9.5"/>
          <path d="M487.5,701c4.96,0,9,4.04,9,9v30c0,4.96-4.04,9-9,9h-105c-4.96,0-9-4.04-9-9v-30c0-4.96,4.04-9,9-9h105M487.5,700h-105c-5.52,0-10,4.48-10,10v30c0,5.52,4.48,10,10,10h105c5.52,0,10-4.48,10-10v-30c0-5.52-4.48-10-10-10h0Z"/>
        </g>
      </g>
      <g id="rengles-11" data-name="rengles">
        <g id="rengla-0-10" data-name="rengla-0">
          <rect class="cls-1" x="120.5" y="373" width="49" height="124" rx="9.5" ry="9.5"/>
          <path d="M160,373.5c4.96,0,9,4.04,9,9v105c0,4.96-4.04,9-9,9h-30c-4.96,0-9-4.04-9-9v-105c0-4.96,4.04-9,9-9h30M160,372.5h-30c-5.52,0-10,4.48-10,10v105c0,5.52,4.48,10,10,10h30c5.52,0,10-4.48,10-10v-105c0-5.52-4.48-10-10-10h0Z"/>
        </g>
      </g>
      <g id="rengles-12" data-name="rengles">
        <g id="rengla-0-11" data-name="rengla-0">
          <rect class="cls-1" x="373" y="120.5" width="124" height="49" rx="9.5" ry="9.5"/>
          <path d="M487.5,121c4.96,0,9,4.04,9,9v30c0,4.96-4.04,9-9,9h-105c-4.96,0-9-4.04-9-9v-30c0-4.96,4.04-9,9-9h105M487.5,120h-105c-5.52,0-10,4.48-10,10v30c0,5.52,4.48,10,10,10h105c5.52,0,10-4.48,10-10v-30c0-5.52-4.48-10-10-10h0Z"/>
        </g>
      </g>
      <g id="rengles-13" data-name="rengles">
        <g id="rengla-0-12" data-name="rengla-0">
          <rect class="cls-1" x="700.5" y="373" width="49" height="124" rx="9.5" ry="9.5"/>
          <path d="M740,373.5c4.96,0,9,4.04,9,9v105c0,4.96-4.04,9-9,9h-30c-4.96,0-9-4.04-9-9v-105c0-4.96,4.04-9,9-9h30M740,372.5h-30c-5.52,0-10,4.48-10,10v105c0,5.52,4.48,10,10,10h30c5.52,0,10-4.48,10-10v-105c0-5.52-4.48-10-10-10h0Z"/>
        </g>
      </g>
    </g>
    <g>
      <g id="rengles-14" data-name="rengles">
        <g id="rengla-0-13" data-name="rengla-0">
          <rect class="cls-1" x="373" y="760.5" width="124" height="49" rx="9.5" ry="9.5"/>
          <path d="M487.5,761c4.96,0,9,4.04,9,9v30c0,4.96-4.04,9-9,9h-105c-4.96,0-9-4.04-9-9v-30c0-4.96,4.04-9,9-9h105M487.5,760h-105c-5.52,0-10,4.48-10,10v30c0,5.52,4.48,10,10,10h105c5.52,0,10-4.48,10-10v-30c0-5.52-4.48-10-10-10h0Z"/>
        </g>
      </g>
      <g id="rengles-15" data-name="rengles">
        <g id="rengla-0-14" data-name="rengla-0">
          <rect class="cls-1" x="60.5" y="373" width="49" height="124" rx="9.5" ry="9.5"/>
          <path d="M100,373.5c4.96,0,9,4.04,9,9v105c0,4.96-4.04,9-9,9h-30c-4.96,0-9-4.04-9-9v-105c0-4.96,4.04-9,9-9h30M100,372.5h-30c-5.52,0-10,4.48-10,10v105c0,5.52,4.48,10,10,10h30c5.52,0,10-4.48,10-10v-105c0-5.52-4.48-10-10-10h0Z"/>
        </g>
      </g>
      <g id="rengles-16" data-name="rengles">
        <g id="rengla-0-15" data-name="rengla-0">
          <rect class="cls-1" x="373" y="60.5" width="124" height="49" rx="9.5" ry="9.5"/>
          <path d="M487.5,61c4.96,0,9,4.04,9,9v30c0,4.96-4.04,9-9,9h-105c-4.96,0-9-4.04-9-9v-30c0-4.96,4.04-9,9-9h105M487.5,60h-105c-5.52,0-10,4.48-10,10v30c0,5.52,4.48,10,10,10h105c5.52,0,10-4.48,10-10v-30c0-5.52-4.48-10-10-10h0Z"/>
        </g>
      </g>
      <g id="rengles-17" data-name="rengles">
        <g id="rengla-0-16" data-name="rengla-0">
          <rect class="cls-1" x="760.5" y="373" width="49" height="124" rx="9.5" ry="9.5"/>
          <path d="M800,373.5c4.96,0,9,4.04,9,9v105c0,4.96-4.04,9-9,9h-30c-4.96,0-9-4.04-9-9v-105c0-4.96,4.04-9,9-9h30M800,372.5h-30c-5.52,0-10,4.48-10,10v105c0,5.52,4.48,10,10,10h30c5.52,0,10-4.48,10-10v-105c0-5.52-4.48-10-10-10h0Z"/>
        </g>
      </g>
    </g>
    <g>
      <g id="rengles-18" data-name="rengles">
        <g id="rengla-0-17" data-name="rengla-0">
          <rect class="cls-1" x="373" y="820.5" width="124" height="49" rx="9.5" ry="9.5"/>
          <path d="M487.5,821c4.96,0,9,4.04,9,9v30c0,4.96-4.04,9-9,9h-105c-4.96,0-9-4.04-9-9v-30c0-4.96,4.04-9,9-9h105M487.5,820h-105c-5.52,0-10,4.48-10,10v30c0,5.52,4.48,10,10,10h105c5.52,0,10-4.48,10-10v-30c0-5.52-4.48-10-10-10h0Z"/>
        </g>
      </g>
      <g id="rengles-19" data-name="rengles">
        <g id="rengla-0-18" data-name="rengla-0">
          <rect class="cls-1" x=".5" y="373" width="49" height="124" rx="9.5" ry="9.5"/>
          <path d="M40,373.5c4.96,0,9,4.04,9,9v105c0,4.96-4.04,9-9,9H10c-4.96,0-9-4.04-9-9v-105c0-4.96,4.04-9,9-9h30M40,372.5H10c-5.52,0-10,4.48-10,10v105c0,5.52,4.48,10,10,10h30c5.52,0,10-4.48,10-10v-105c0-5.52-4.48-10-10-10h0Z"/>
        </g>
      </g>
      <g id="rengles-20" data-name="rengles">
        <g id="rengla-0-19" data-name="rengla-0">
          <rect class="cls-1" x="373" y=".5" width="124" height="49" rx="9.5" ry="9.5"/>
          <path d="M487.5,1c4.96,0,9,4.04,9,9v30c0,4.96-4.04,9-9,9h-105c-4.96,0-9-4.04-9-9V10c0-4.96,4.04-9,9-9h105M487.5,0h-105c-5.52,0-10,4.48-10,10v30c0,5.52,4.48,10,10,10h105c5.52,0,10-4.48,10-10V10c0-5.52-4.48-10-10-10h0Z"/>
        </g>
      </g>
      <g id="rengles-21" data-name="rengles">
        <g id="rengla-0-20" data-name="rengla-0">
          <rect class="cls-1" x="820.5" y="373" width="49" height="124" rx="9.5" ry="9.5"/>
          <path d="M860,373.5c4.96,0,9,4.04,9,9v105c0,4.96-4.04,9-9,9h-30c-4.96,0-9-4.04-9-9v-105c0-4.96,4.04-9,9-9h30M860,372.5h-30c-5.52,0-10,4.48-10,10v105c0,5.52,4.48,10,10,10h30c5.52,0,10-4.48,10-10v-105c0-5.52-4.48-10-10-10h0Z"/>
        </g>
      </g>
    </g>
  </g>
  <g id="laterals">
    <g>
      <g id="contraforts-2" data-name="contraforts">
        <g id="contrafort-0-2" data-name="contrafort-0">
          <path class="cls-1" d="M557.76,625.48c-2.56,0-4.96-1-6.75-2.82l-21.1-21.33c-1.79-1.8-2.76-4.19-2.75-6.73.01-2.54,1.01-4.92,2.82-6.7l56.88-56.26c1.79-1.77,4.16-2.75,6.68-2.75s4.96,1,6.75,2.82l21.1,21.33c3.68,3.72,3.65,9.75-.07,13.44l-56.88,56.26c-1.79,1.77-4.16,2.75-6.68,2.75Z"/>
          <path d="M593.54,529.39h0c2.42,0,4.69.95,6.4,2.67l21.1,21.33c3.49,3.53,3.46,9.24-.07,12.73l-56.88,56.26c-1.7,1.68-3.94,2.6-6.33,2.6s-4.7-.95-6.4-2.67l-21.1-21.33c-1.69-1.71-2.61-3.97-2.6-6.38.01-2.4.96-4.66,2.67-6.35l56.88-56.26c1.7-1.68,3.94-2.6,6.33-2.6M593.54,528.39c-2.54,0-5.08.96-7.03,2.89l-56.88,56.26c-3.93,3.88-3.96,10.22-.08,14.14l21.1,21.33c1.96,1.98,4.53,2.97,7.11,2.97s5.08-.96,7.03-2.89l56.88-56.26c3.93-3.88,3.96-10.22.08-14.14l-21.1-21.33c-1.96-1.98-4.53-2.97-7.11-2.97h0Z"/>
        </g>
      </g>
      <g id="contraforts-3" data-name="contraforts">
        <g id="contrafort-0-3" data-name="contrafort-0">
          <path class="cls-1" d="M310.28,624.14c-2.56,0-4.96-1-6.75-2.82l-56.26-56.88c-3.68-3.72-3.65-9.75.07-13.44l21.33-21.1c1.79-1.77,4.16-2.75,6.68-2.75s4.96,1,6.75,2.82l56.26,56.88c1.78,1.8,2.76,4.19,2.75,6.73-.01,2.54-1.02,4.92-2.82,6.7l-21.33,21.1c-1.79,1.77-4.16,2.75-6.68,2.75Z"/>
          <path d="M275.35,527.66h0c2.42,0,4.69.95,6.4,2.67l56.26,56.88c3.49,3.53,3.46,9.24-.07,12.73l-21.33,21.1c-1.7,1.68-3.94,2.6-6.33,2.6s-4.7-.95-6.4-2.67l-56.26-56.88c-1.69-1.71-2.61-3.97-2.6-6.38.01-2.4.96-4.66,2.67-6.35l21.33-21.1c1.7-1.68,3.94-2.6,6.33-2.6M275.35,526.66c-2.54,0-5.08.96-7.03,2.89l-21.33,21.1c-3.93,3.88-3.96,10.22-.08,14.14l56.26,56.88c1.96,1.98,4.53,2.97,7.11,2.97s5.08-.96,7.03-2.89l21.33-21.1c3.93-3.88,3.96-10.22.08-14.14l-56.26-56.88c-1.96-1.98-4.53-2.97-7.11-2.97h0Z"/>
        </g>
      </g>
      <g id="contraforts-4" data-name="contraforts">
        <g id="contrafort-0-4" data-name="contrafort-0">
          <path class="cls-1" d="M276.46,341.11c-2.56,0-4.96-1-6.75-2.82l-21.1-21.33c-3.68-3.72-3.65-9.75.07-13.43l56.88-56.26c1.79-1.77,4.16-2.75,6.68-2.75s4.96,1,6.75,2.82l21.1,21.33c1.78,1.8,2.76,4.19,2.75,6.73s-1.02,4.92-2.82,6.7l-56.88,56.26c-1.79,1.77-4.16,2.75-6.68,2.75Z"/>
          <path d="M312.24,245.02h0c2.42,0,4.69.95,6.4,2.67l21.1,21.33c3.49,3.53,3.46,9.24-.07,12.73l-56.88,56.26c-1.7,1.68-3.94,2.6-6.33,2.6s-4.7-.95-6.4-2.67l-21.1-21.33c-3.49-3.53-3.46-9.24.07-12.73l56.88-56.26c1.7-1.68,3.94-2.6,6.33-2.6M312.24,244.02c-2.54,0-5.08.96-7.03,2.89l-56.88,56.26c-3.93,3.88-3.96,10.22-.08,14.14l21.1,21.33c1.96,1.98,4.53,2.97,7.11,2.97s5.08-.96,7.03-2.89l56.88-56.26c3.93-3.88,3.96-10.22.08-14.14l-21.1-21.33c-1.96-1.98-4.53-2.97-7.11-2.97h0Z"/>
        </g>
      </g>
      <g id="contraforts-5" data-name="contraforts">
        <g id="contrafort-0-5" data-name="contrafort-0">
          <path class="cls-1" d="M594.65,342.84c-2.56,0-4.96-1-6.75-2.82l-56.26-56.88c-1.79-1.8-2.76-4.19-2.75-6.73s1.01-4.92,2.82-6.7l21.33-21.1c1.79-1.77,4.16-2.75,6.68-2.75s4.96,1,6.75,2.82l56.26,56.88c3.68,3.72,3.65,9.75-.07,13.44l-21.33,21.1c-1.79,1.77-4.16,2.75-6.68,2.75Z"/>
          <path d="M559.72,246.36h0c2.42,0,4.69.95,6.4,2.67l56.26,56.88c1.69,1.71,2.61,3.97,2.6,6.38-.01,2.4-.96,4.66-2.67,6.35l-21.33,21.1c-1.7,1.68-3.94,2.6-6.33,2.6s-4.7-.95-6.4-2.67l-56.26-56.88c-3.49-3.53-3.46-9.24.07-12.73l21.33-21.1c1.7-1.68,3.94-2.6,6.33-2.6M559.72,245.36c-2.54,0-5.08.96-7.03,2.89l-21.33,21.1c-3.93,3.88-3.96,10.22-.08,14.14l56.26,56.88c1.96,1.98,4.53,2.97,7.11,2.97s5.08-.96,7.03-2.89l21.33-21.1c3.93-3.88,3.96-10.22.08-14.14l-56.26-56.88c-1.96-1.98-4.53-2.97-7.11-2.97h0Z"/>
        </g>
      </g>
    </g>
    <g>
      <g id="contraforts-6" data-name="contraforts">
        <g id="contrafort-0-6" data-name="contrafort-0">
          <path class="cls-1" d="M599.96,668.14c-2.56,0-4.96-1-6.75-2.82l-21.1-21.33c-3.68-3.72-3.65-9.75.07-13.44l56.88-56.26c1.79-1.77,4.16-2.75,6.68-2.75s4.96,1,6.75,2.82l21.1,21.33c1.78,1.8,2.76,4.19,2.75,6.73-.01,2.54-1.02,4.92-2.82,6.7l-56.88,56.26c-1.79,1.77-4.16,2.75-6.68,2.75Z"/>
          <path d="M635.73,572.05h0c2.42,0,4.69.95,6.4,2.67l21.1,21.33c3.49,3.53,3.46,9.24-.07,12.73l-56.88,56.26c-1.7,1.68-3.94,2.6-6.33,2.6s-4.7-.95-6.4-2.67l-21.1-21.33c-3.49-3.53-3.46-9.24.07-12.73l56.88-56.26c1.7-1.68,3.94-2.6,6.33-2.6M635.73,571.05c-2.54,0-5.08.96-7.03,2.89l-56.88,56.26c-3.93,3.88-3.96,10.22-.08,14.14l21.1,21.33c1.96,1.98,4.53,2.97,7.11,2.97s5.08-.96,7.03-2.89l56.88-56.26c3.93-3.88,3.96-10.22.08-14.14l-21.1-21.33c-1.96-1.98-4.53-2.97-7.11-2.97h0Z"/>
        </g>
      </g>
      <g id="contraforts-7" data-name="contraforts">
        <g id="contrafort-0-7" data-name="contrafort-0">
          <path class="cls-1" d="M267.62,666.33c-2.56,0-4.96-1-6.75-2.82l-56.26-56.88c-1.78-1.8-2.76-4.2-2.75-6.73.01-2.54,1.01-4.92,2.82-6.7l21.33-21.1c1.79-1.77,4.16-2.75,6.68-2.75s4.96,1,6.75,2.82l56.26,56.88c3.68,3.72,3.65,9.75-.07,13.44l-21.33,21.1c-1.79,1.77-4.16,2.75-6.68,2.75Z"/>
          <path d="M232.69,569.86h0c2.42,0,4.69.95,6.4,2.67l56.26,56.88c1.69,1.71,2.61,3.97,2.6,6.38-.01,2.4-.96,4.66-2.67,6.35l-21.33,21.1c-1.7,1.68-3.94,2.6-6.33,2.6s-4.7-.95-6.4-2.67l-56.26-56.88c-3.49-3.53-3.46-9.24.07-12.73l21.33-21.1c1.7-1.68,3.94-2.6,6.33-2.6M232.69,568.86c-2.54,0-5.08.96-7.03,2.89l-21.33,21.1c-3.93,3.88-3.96,10.22-.08,14.14l56.26,56.88c1.96,1.98,4.53,2.97,7.11,2.97s5.08-.96,7.03-2.89l21.33-21.1c3.93-3.88,3.96-10.22.08-14.14l-56.26-56.88c-1.96-1.98-4.53-2.97-7.11-2.97h0Z"/>
        </g>
      </g>
      <g id="contraforts-8" data-name="contraforts">
        <g id="contrafort-0-8" data-name="contrafort-0">
          <path class="cls-1" d="M234.27,298.45c-2.56,0-4.96-1-6.75-2.82l-21.1-21.33c-3.68-3.72-3.65-9.75.07-13.44l56.88-56.26c1.79-1.77,4.16-2.75,6.68-2.75s4.96,1,6.75,2.82l21.1,21.33c1.78,1.8,2.76,4.2,2.75,6.73-.01,2.54-1.02,4.92-2.82,6.7l-56.88,56.26c-1.79,1.77-4.16,2.75-6.68,2.75Z"/>
          <path d="M270.04,202.36h0c2.42,0,4.69.95,6.4,2.67l21.1,21.33c1.69,1.71,2.61,3.97,2.6,6.38-.01,2.4-.96,4.66-2.67,6.35l-56.88,56.26c-1.7,1.68-3.94,2.6-6.33,2.6s-4.7-.95-6.4-2.67l-21.1-21.33c-3.49-3.53-3.46-9.24.07-12.73l56.88-56.26c1.7-1.68,3.94-2.6,6.33-2.6M270.04,201.36c-2.54,0-5.08.96-7.03,2.89l-56.88,56.26c-3.93,3.88-3.96,10.22-.08,14.14l21.1,21.33c1.96,1.98,4.53,2.97,7.11,2.97s5.08-.96,7.03-2.89l56.88-56.26c3.93-3.88,3.96-10.22.08-14.14l-21.1-21.33c-1.96-1.98-4.53-2.97-7.11-2.97h0Z"/>
        </g>
      </g>
      <g id="contraforts-9" data-name="contraforts">
        <g id="contrafort-0-9" data-name="contrafort-0">
          <path class="cls-1" d="M637.31,300.64c-2.56,0-4.96-1-6.75-2.82l-56.26-56.88c-1.78-1.8-2.76-4.2-2.75-6.73s1.02-4.92,2.82-6.7l21.33-21.1c1.79-1.77,4.16-2.75,6.68-2.75s4.96,1,6.75,2.82l56.26,56.88c1.79,1.8,2.76,4.2,2.75,6.73s-1.01,4.92-2.82,6.7l-21.33,21.1c-1.79,1.77-4.16,2.75-6.68,2.75Z"/>
          <path d="M602.38,204.17h0c2.42,0,4.69.95,6.4,2.67l56.26,56.88c3.49,3.53,3.46,9.24-.07,12.73l-21.33,21.1c-1.7,1.68-3.94,2.6-6.33,2.6s-4.7-.95-6.4-2.67l-56.26-56.88c-1.69-1.71-2.61-3.97-2.6-6.38.01-2.4.96-4.66,2.67-6.35l21.33-21.1c1.7-1.68,3.94-2.6,6.33-2.6M602.38,203.17c-2.54,0-5.08.96-7.03,2.89l-21.33,21.1c-3.93,3.88-3.96,10.22-.08,14.14l56.26,56.88c1.96,1.98,4.53,2.97,7.11,2.97s5.08-.96,7.03-2.89l21.33-21.1c3.93-3.88,3.96-10.22.08-14.14l-56.26-56.88c-1.96-1.98-4.53-2.97-7.11-2.97h0Z"/>
        </g>
      </g>
    </g>
    <g>
      <g id="contraforts-10" data-name="contraforts">
        <g id="contrafort-0-10" data-name="contrafort-0">
          <path class="cls-1" d="M642.15,710.79c-2.56,0-4.96-1-6.75-2.82l-21.1-21.33c-3.68-3.72-3.65-9.75.07-13.44l56.88-56.26c1.79-1.77,4.16-2.75,6.68-2.75s4.96,1,6.75,2.82l21.1,21.33c3.68,3.72,3.65,9.75-.07,13.43l-56.88,56.26c-1.79,1.77-4.16,2.75-6.68,2.75Z"/>
          <path d="M677.93,614.71h0c2.42,0,4.69.95,6.4,2.67l21.1,21.33c1.69,1.71,2.61,3.97,2.6,6.38s-.96,4.66-2.67,6.35l-56.88,56.26c-1.7,1.68-3.94,2.6-6.33,2.6s-4.7-.95-6.4-2.67l-21.1-21.33c-3.49-3.53-3.46-9.24.07-12.73l56.88-56.26c1.7-1.68,3.94-2.6,6.33-2.6M677.93,613.71c-2.54,0-5.08.96-7.03,2.89l-56.88,56.26c-3.93,3.88-3.96,10.22-.08,14.14l21.1,21.33c1.96,1.98,4.53,2.97,7.11,2.97s5.08-.96,7.03-2.89l56.88-56.26c3.93-3.88,3.96-10.22.08-14.14l-21.1-21.33c-1.96-1.98-4.53-2.97-7.11-2.97h0Z"/>
        </g>
      </g>
      <g id="contraforts-11" data-name="contraforts">
        <g id="contrafort-0-11" data-name="contrafort-0">
          <path class="cls-1" d="M224.96,708.53c-2.56,0-4.96-1-6.75-2.82l-56.26-56.88c-1.78-1.8-2.76-4.19-2.75-6.73.01-2.54,1.02-4.92,2.82-6.7l21.33-21.1c1.79-1.77,4.16-2.75,6.68-2.75s4.96,1,6.75,2.82l56.26,56.88c3.68,3.72,3.65,9.75-.07,13.44l-21.33,21.1c-1.79,1.77-4.16,2.75-6.68,2.75Z"/>
          <path d="M190.03,612.05h0c2.42,0,4.69.95,6.4,2.67l56.26,56.88c1.69,1.71,2.61,3.97,2.6,6.38-.01,2.4-.96,4.66-2.67,6.35l-21.33,21.1c-1.7,1.68-3.94,2.6-6.33,2.6s-4.7-.95-6.4-2.67l-56.26-56.88c-3.49-3.53-3.46-9.24.07-12.73l21.33-21.1c1.7-1.68,3.94-2.6,6.33-2.6M190.03,611.05c-2.54,0-5.08.96-7.03,2.89l-21.33,21.1c-3.93,3.88-3.96,10.22-.08,14.14l56.26,56.88c1.96,1.98,4.53,2.97,7.11,2.97s5.08-.96,7.03-2.89l21.33-21.1c3.93-3.88,3.96-10.22.08-14.14l-56.26-56.88c-1.96-1.98-4.53-2.97-7.11-2.97h0Z"/>
        </g>
      </g>
      <g id="contraforts-12" data-name="contraforts">
        <g id="contrafort-0-12" data-name="contrafort-0">
          <path class="cls-1" d="M192.07,255.79c-2.56,0-4.96-1-6.75-2.82l-21.1-21.33c-3.68-3.72-3.65-9.75.07-13.43l56.88-56.26c1.79-1.77,4.16-2.75,6.68-2.75s4.96,1,6.75,2.82l21.1,21.33c1.78,1.8,2.76,4.19,2.75,6.73s-1.02,4.92-2.82,6.7l-56.88,56.26c-1.79,1.77-4.16,2.75-6.68,2.75Z"/>
          <path d="M227.85,159.7h0c2.42,0,4.69.95,6.4,2.67l21.1,21.33c1.69,1.71,2.61,3.97,2.6,6.38-.01,2.4-.96,4.66-2.67,6.35l-56.88,56.26c-1.7,1.68-3.94,2.6-6.33,2.6s-4.7-.95-6.4-2.67l-21.1-21.33c-1.69-1.71-2.61-3.97-2.6-6.38.01-2.4.96-4.66,2.67-6.35l56.88-56.26c1.7-1.68,3.94-2.6,6.33-2.6M227.85,158.7c-2.54,0-5.08.96-7.03,2.89l-56.88,56.26c-3.93,3.88-3.96,10.22-.08,14.14l21.1,21.33c1.96,1.98,4.53,2.97,7.11,2.97s5.08-.96,7.03-2.89l56.88-56.26c3.93-3.88,3.96-10.22.08-14.14l-21.1-21.33c-1.96-1.98-4.53-2.97-7.11-2.97h0Z"/>
        </g>
      </g>
      <g id="contraforts-13" data-name="contraforts">
        <g id="contrafort-0-13" data-name="contrafort-0">
          <path class="cls-1" d="M679.97,258.45c-2.56,0-4.96-1-6.75-2.82l-56.26-56.88c-1.78-1.8-2.76-4.19-2.75-6.73s1.02-4.92,2.82-6.7l21.33-21.1c1.79-1.77,4.16-2.75,6.68-2.75s4.96,1,6.75,2.82l56.26,56.88c3.68,3.72,3.65,9.75-.07,13.44l-21.33,21.1c-1.79,1.77-4.16,2.75-6.68,2.75Z"/>
          <path d="M645.03,161.97h0c2.42,0,4.69.95,6.4,2.67l56.26,56.88c3.49,3.53,3.46,9.24-.07,12.73l-21.33,21.1c-1.7,1.68-3.94,2.6-6.33,2.6s-4.7-.95-6.4-2.67l-56.26-56.88c-1.69-1.71-2.61-3.97-2.6-6.38s.96-4.66,2.67-6.35l21.33-21.1c1.7-1.68,3.94-2.6,6.33-2.6M645.03,160.97c-2.54,0-5.08.96-7.03,2.89l-21.33,21.1c-3.93,3.88-3.96,10.22-.08,14.14l56.26,56.88c1.96,1.98,4.53,2.97,7.11,2.97s5.08-.96,7.03-2.89l21.33-21.1c3.93-3.88,3.96-10.22.08-14.14l-56.26-56.88c-1.96-1.98-4.53-2.97-7.11-2.97h0Z"/>
        </g>
      </g>
    </g>
    <g>
      <g id="contraforts-14" data-name="contraforts">
        <g id="contrafort-0-14" data-name="contrafort-0">
          <path class="cls-1" d="M684.35,753.45c-2.56,0-4.96-1-6.75-2.82l-21.1-21.33c-3.68-3.72-3.65-9.75.07-13.43l56.88-56.26c1.79-1.77,4.16-2.75,6.68-2.75s4.96,1,6.75,2.82l21.1,21.33c3.68,3.72,3.65,9.75-.07,13.43l-56.88,56.26c-1.79,1.77-4.16,2.75-6.68,2.75Z"/>
          <path d="M720.12,657.36h0c2.42,0,4.69.95,6.4,2.67l21.1,21.33c1.69,1.71,2.61,3.97,2.6,6.38s-.96,4.66-2.67,6.35l-56.88,56.26c-1.7,1.68-3.94,2.6-6.33,2.6s-4.7-.95-6.4-2.67l-21.1-21.33c-3.49-3.53-3.46-9.24.07-12.73l56.88-56.26c1.7-1.68,3.94-2.6,6.33-2.6M720.12,656.36c-2.54,0-5.08.96-7.03,2.89l-56.88,56.26c-3.93,3.88-3.96,10.22-.08,14.14l21.1,21.33c1.96,1.98,4.53,2.97,7.11,2.97s5.08-.96,7.03-2.89l56.88-56.26c3.93-3.88,3.96-10.22.08-14.14l-21.1-21.33c-1.96-1.98-4.53-2.97-7.11-2.97h0Z"/>
        </g>
      </g>
      <g id="contraforts-15" data-name="contraforts">
        <g id="contrafort-0-15" data-name="contrafort-0">
          <path class="cls-1" d="M182.31,750.72c-2.56,0-4.96-1-6.75-2.82l-56.26-56.88c-3.68-3.72-3.65-9.75.07-13.43l21.33-21.1c1.79-1.77,4.16-2.75,6.68-2.75s4.96,1,6.75,2.82l56.26,56.88c3.68,3.72,3.65,9.75-.07,13.43l-21.33,21.1c-1.79,1.77-4.16,2.75-6.68,2.75Z"/>
          <path d="M147.38,654.25h0c2.42,0,4.69.95,6.4,2.67l56.26,56.88c3.49,3.53,3.46,9.24-.07,12.73l-21.33,21.1c-1.7,1.68-3.94,2.6-6.33,2.6s-4.7-.95-6.4-2.67l-56.26-56.88c-1.69-1.71-2.61-3.97-2.6-6.38.01-2.4.96-4.66,2.67-6.35l21.33-21.1c1.7-1.68,3.94-2.6,6.33-2.6M147.38,653.25c-2.54,0-5.08.96-7.03,2.89l-21.33,21.1c-3.93,3.88-3.96,10.22-.08,14.14l56.26,56.88c1.96,1.98,4.53,2.97,7.11,2.97s5.08-.96,7.03-2.89l21.33-21.1c3.93-3.88,3.96-10.22.08-14.14l-56.26-56.88c-1.96-1.98-4.53-2.97-7.11-2.97h0Z"/>
        </g>
      </g>
      <g id="contraforts-16" data-name="contraforts">
        <g id="contrafort-0-16" data-name="contrafort-0">
          <path class="cls-1" d="M149.88,213.14c-2.56,0-4.96-1-6.75-2.82l-21.1-21.33c-1.78-1.8-2.76-4.19-2.75-6.73.01-2.54,1.02-4.92,2.82-6.7l56.88-56.26c1.79-1.77,4.16-2.75,6.68-2.75s4.96,1,6.75,2.82l21.1,21.33c3.68,3.72,3.65,9.75-.07,13.44l-56.88,56.26c-1.79,1.77-4.16,2.75-6.68,2.75Z"/>
          <path d="M185.65,117.05h0c2.42,0,4.69.95,6.4,2.67l21.1,21.33c3.49,3.53,3.46,9.24-.07,12.73l-56.88,56.26c-1.7,1.68-3.94,2.6-6.33,2.6s-4.7-.95-6.4-2.67l-21.1-21.33c-3.49-3.53-3.46-9.24.07-12.73l56.88-56.26c1.7-1.68,3.94-2.6,6.33-2.6M185.65,116.05c-2.54,0-5.08.96-7.03,2.89l-56.88,56.26c-3.93,3.88-3.96,10.22-.08,14.14l21.1,21.33c1.96,1.98,4.53,2.97,7.11,2.97s5.08-.96,7.03-2.89l56.88-56.26c3.93-3.88,3.96-10.22.08-14.14l-21.1-21.33c-1.96-1.98-4.53-2.97-7.11-2.97h0Z"/>
        </g>
      </g>
      <g id="contraforts-17" data-name="contraforts">
        <g id="contrafort-0-17" data-name="contrafort-0">
          <path class="cls-1" d="M722.62,216.25c-2.56,0-4.96-1-6.75-2.82l-56.26-56.88c-1.78-1.8-2.76-4.2-2.75-6.73s1.02-4.92,2.82-6.7l21.33-21.1c1.79-1.77,4.16-2.75,6.68-2.75s4.96,1,6.75,2.82l56.26,56.88c3.68,3.72,3.65,9.75-.07,13.44l-21.33,21.1c-1.79,1.77-4.16,2.75-6.68,2.75Z"/>
          <path d="M687.69,119.78h0c2.42,0,4.69.95,6.4,2.67l56.26,56.88c3.49,3.53,3.46,9.24-.07,12.73l-21.33,21.1c-1.7,1.68-3.94,2.6-6.33,2.6s-4.7-.95-6.4-2.67l-56.26-56.88c-3.49-3.53-3.46-9.24.07-12.73l21.33-21.1c1.7-1.68,3.94-2.6,6.33-2.6M687.69,118.78c-2.54,0-5.08.96-7.03,2.89l-21.33,21.1c-3.93,3.88-3.96,10.22-.08,14.14l56.26,56.88c1.96,1.98,4.53,2.97,7.11,2.97s5.08-.96,7.03-2.89l21.33-21.1c3.93-3.88,3.96-10.22.08-14.14l-56.26-56.88c-1.96-1.98-4.53-2.97-7.11-2.97h0Z"/>
        </g>
      </g>
    </g>
    <g>
      <g id="contraforts-18" data-name="contraforts">
        <g id="contrafort-0-18" data-name="contrafort-0">
          <path class="cls-1" d="M726.54,796.11c-2.56,0-4.96-1-6.75-2.82l-21.1-21.33c-3.68-3.72-3.65-9.75.07-13.43l56.88-56.26c1.79-1.77,4.16-2.75,6.68-2.75s4.96,1,6.75,2.82l21.1,21.33c3.68,3.72,3.65,9.75-.07,13.44l-56.88,56.26c-1.79,1.77-4.16,2.75-6.68,2.75Z"/>
          <path d="M762.32,700.02h0c2.42,0,4.69.95,6.4,2.67l21.1,21.33c3.49,3.53,3.46,9.24-.07,12.73l-56.88,56.26c-1.7,1.68-3.94,2.6-6.33,2.6s-4.7-.95-6.4-2.67l-21.1-21.33c-1.69-1.71-2.61-3.97-2.6-6.38s.96-4.66,2.67-6.35l56.88-56.26c1.7-1.68,3.94-2.6,6.33-2.6M762.32,699.02c-2.54,0-5.08.96-7.03,2.89l-56.88,56.26c-3.93,3.88-3.96,10.22-.08,14.14l21.1,21.33c1.96,1.98,4.53,2.97,7.11,2.97s5.08-.96,7.03-2.89l56.88-56.26c3.93-3.88,3.96-10.22.08-14.14l-21.1-21.33c-1.96-1.98-4.53-2.97-7.11-2.97h0Z"/>
        </g>
      </g>
      <g id="contraforts-19" data-name="contraforts">
        <g id="contrafort-0-19" data-name="contrafort-0">
          <path class="cls-1" d="M139.65,792.92c-2.56,0-4.96-1-6.75-2.82l-56.26-56.88c-3.68-3.72-3.65-9.75.07-13.43l21.33-21.1c1.79-1.77,4.16-2.75,6.68-2.75s4.96,1,6.75,2.82l56.26,56.88c1.78,1.8,2.76,4.19,2.75,6.73-.01,2.54-1.01,4.92-2.82,6.7l-21.33,21.1c-1.79,1.77-4.16,2.75-6.68,2.75Z"/>
          <path d="M104.72,696.44h0c2.42,0,4.69.95,6.4,2.67l56.26,56.88c1.69,1.71,2.61,3.97,2.6,6.38-.01,2.4-.96,4.66-2.67,6.35l-21.33,21.1c-1.7,1.68-3.94,2.6-6.33,2.6s-4.7-.95-6.4-2.67l-56.26-56.88c-3.49-3.53-3.46-9.24.07-12.73l21.33-21.1c1.7-1.68,3.94-2.6,6.33-2.6M104.72,695.44c-2.54,0-5.08.96-7.03,2.89l-21.33,21.1c-3.93,3.88-3.96,10.22-.08,14.14l56.26,56.88c1.96,1.98,4.53,2.97,7.11,2.97s5.08-.96,7.03-2.89l21.33-21.1c3.93-3.88,3.96-10.22.08-14.14l-56.26-56.88c-1.96-1.98-4.53-2.97-7.11-2.97h0Z"/>
        </g>
      </g>
      <g id="contraforts-20" data-name="contraforts">
        <g id="contrafort-0-20" data-name="contrafort-0">
          <path class="cls-1" d="M107.68,170.48c-2.56,0-4.96-1-6.75-2.82l-21.1-21.33c-3.68-3.72-3.65-9.75.07-13.44l56.88-56.26c1.79-1.77,4.16-2.75,6.68-2.75s4.96,1,6.75,2.82l21.1,21.33c1.78,1.8,2.76,4.19,2.75,6.73s-1.02,4.92-2.82,6.7l-56.88,56.26c-1.79,1.77-4.16,2.75-6.68,2.75Z"/>
          <path d="M143.46,74.39h0c2.42,0,4.69.95,6.4,2.67l21.1,21.33c1.69,1.71,2.61,3.97,2.6,6.38-.01,2.4-.96,4.66-2.67,6.35l-56.88,56.26c-1.7,1.68-3.94,2.6-6.33,2.6s-4.7-.95-6.4-2.67l-21.1-21.33c-1.69-1.71-2.61-3.97-2.6-6.38.01-2.4.96-4.66,2.67-6.35l56.88-56.26c1.7-1.68,3.94-2.6,6.33-2.6M143.46,73.39c-2.54,0-5.08.96-7.03,2.89l-56.88,56.26c-3.93,3.88-3.96,10.22-.08,14.14l21.1,21.33c1.96,1.98,4.53,2.97,7.11,2.97s5.08-.96,7.03-2.89l56.88-56.26c3.93-3.88,3.96-10.22.08-14.14l-21.1-21.33c-1.96-1.98-4.53-2.97-7.11-2.97h0Z"/>
        </g>
      </g>
      <g id="contraforts-21" data-name="contraforts">
        <g id="contrafort-0-21" data-name="contrafort-0">
          <path class="cls-1" d="M765.28,174.06c-2.56,0-4.96-1-6.75-2.82l-56.26-56.88c-1.79-1.8-2.76-4.19-2.75-6.73s1.01-4.92,2.82-6.7l21.33-21.1c1.79-1.77,4.16-2.75,6.68-2.75s4.96,1,6.75,2.82l56.26,56.88c3.68,3.72,3.65,9.75-.07,13.44l-21.33,21.1c-1.79,1.77-4.16,2.75-6.68,2.75Z"/>
          <path d="M730.35,77.58h0c2.42,0,4.69.95,6.4,2.67l56.26,56.88c1.69,1.71,2.61,3.97,2.6,6.38-.01,2.4-.96,4.66-2.67,6.35l-21.33,21.1c-1.7,1.68-3.94,2.6-6.33,2.6s-4.7-.95-6.4-2.67l-56.26-56.88c-3.49-3.53-3.46-9.24.07-12.73l21.33-21.1c1.7-1.68,3.94-2.6,6.33-2.6M730.35,76.58c-2.54,0-5.08.96-7.03,2.89l-21.33,21.1c-3.93,3.88-3.96,10.22-.08,14.14l56.26,56.88c1.96,1.98,4.53,2.97,7.11,2.97s5.08-.96,7.03-2.89l21.33-21.1c3.93-3.88,3.96-10.22.08-14.14l-56.26-56.88c-1.96-1.98-4.53-2.97-7.11-2.97h0Z"/>
        </g>
      </g>
    </g>
  </g>
</svg>