<?xml version="1.0" encoding="UTF-8"?>
<svg xmlns="http://www.w3.org/2000/svg" viewBox="0 0 953.05 953.05">
  <defs>
    <style>
      .cls-1 {
        fill: #fff;
      }

      .cls-2, .cls-3 {
        stroke: #000;
        stroke-miterlimit: 10;
      }

      .cls-3 {
        fill: none;
        stroke-width: 2px;
      }

      .cls-4 {
        font-family: Roboto-Regular, Roboto;
        font-size: 15px;
        text-anchor: middle;
        dominant-baseline: central;
      }

      .baix {

      } 

      .contrafort {
        fill: rgb(255,242,204);
      }

      .agulla {
        fill: rgb(249,203,156);
      }

      .crossa {
        fill: rgb(244,204,204);
      }

      .mans {
          fill:rgb(252,229,205)
      }

      .vents {
          fill: rgb(217,234,211)
      }

      .lateral {
          fill: rgb(201,218,248)
      }     

    </style>
  </defs>

  <g id="recuadres">

    <g id="baixos">
      <g id="baix-1">
        <rect class="cls-1 baix" x="414.93" y="519.98" width="123" height="48" rx="9" ry="9"/>
        <path d="M528.93,520.98c4.41,0,8,3.59,8,8v30c0,4.41-3.59,8-8,8h-105c-4.41,0-8-3.59-8-8v-30c0-4.41,3.59-8,8-8h105M528.93,518.98h-105c-5.52,0-10,4.48-10,10v30c0,5.52,4.48,10,10,10h105c5.52,0,10-4.48,10-10v-30c0-5.52-4.48-10-10-10h0Z"/>
      </g>
      <g id="baix-0">
        <rect class="cls-1 baix" x="415.12" y="385.07" width="123" height="48" rx="9" ry="9"/>
        <path d="M529.12,386.07c4.41,0,8,3.59,8,8v30c0,4.41-3.59,8-8,8h-105c-4.41,0-8-3.59-8-8v-30c0-4.41,3.59-8,8-8h105M529.12,384.07h-105c-5.52,0-10,4.48-10,10v30c0,5.52,4.48,10,10,10h105c5.52,0,10-4.48,10-10v-30c0-5.52-4.48-10-10-10h0Z"/>
      </g>
    </g>

    <g id="agulles">
      <g id="agulla-0">
        <rect class="cls-1 agulla" x="414.52" y="452.02" width="124" height="49" rx="9.5" ry="9.5"/>
        <path d="M529.02,452.52c4.96,0,9,4.04,9,9v30c0,4.96-4.04,9-9,9h-105c-4.96,0-9-4.04-9-9v-30c0-4.96,4.04-9,9-9h105M529.02,451.52h-105c-5.52,0-10,4.48-10,10v30c0,5.52,4.48,10,10,10h105c5.52,0,10-4.48,10-10v-30c0-5.52-4.48-10-10-10h0Z"/>
      </g>
    </g>

    <g id="contraforts">
      <g id="contrafort-1">
        <rect class="cls-1 contrafort" x="414.34" y="579.52" width="124" height="49" rx="9.5" ry="9.5"/>
        <path d="M528.84,580.02c4.96,0,9,4.04,9,9v30c0,4.96-4.04,9-9,9h-105c-4.96,0-9-4.04-9-9v-30c0-4.96,4.04-9,9-9h105M528.84,579.02h-105c-5.52,0-10,4.48-10,10v30c0,5.52,4.48,10,10,10h105c5.52,0,10-4.48,10-10v-30c0-5.52-4.48-10-10-10h0Z"/>
      </g>
      <g id="contrafort-0">
        <rect class="cls-1 contrafort" x="414.71" y="324.52" width="124" height="49" rx="9.5" ry="9.5"/>
        <path d="M529.21,325.02c4.96,0,9,4.04,9,9v30c0,4.96-4.04,9-9,9h-105c-4.96,0-9-4.04-9-9v-30c0-4.96,4.04-9,9-9h105M529.21,324.02h-105c-5.52,0-10,4.48-10,10v30c0,5.52,4.48,10,10,10h105c5.52,0,10-4.48,10-10v-30c0-5.52-4.48-10-10-10h0Z"/>
      </g>
    </g>

    <g id="crosses">
     
        <g id="crossa-0">
          <rect class="cls-1 crossa" x="351.84" y="481.98" width="49" height="124" rx="9.5" ry="9.5"/>
          <path d="M391.34,482.48c4.96,0,9,4.04,9,9v105c0,4.96-4.04,9-9,9h-30c-4.96,0-9-4.04-9-9v-105c0-4.96,4.04-9,9-9h30M391.34,481.48h-30c-5.52,0-10,4.48-10,10v105c0,5.52,4.48,10,10,10h30c5.52,0,10-4.48,10-10v-105c0-5.52-4.48-10-10-10h0Z"/>
        </g>

        <g id="crossa-1">
          <rect class="cls-1 crossa" x="551.84" y="481.98" width="49" height="124" rx="9.5" ry="9.5"/>
          <path d="M591.34,482.48c4.96,0,9,4.04,9,9v105c0,4.96-4.04,9-9,9h-30c-4.96,0-9-4.04-9-9v-105c0-4.96,4.04-9,9-9h30M591.34,481.48h-30c-5.52,0-10,4.48-10,10v105c0,5.52,4.48,10,10,10h30c5.52,0,10-4.48,10-10v-105c0-5.52-4.48-10-10-10h0Z"/>
        </g>

        <g id="crossa-2">
          <rect class="cls-1 crossa" x="552.21" y="347.07" width="49" height="124" rx="9.5" ry="9.5"/>
          <path d="M591.71,347.57c4.96,0,9,4.04,9,9v105c0,4.96-4.04,9-9,9h-30c-4.96,0-9-4.04-9-9v-105c0-4.96,4.04-9,9-9h30M591.71,346.57h-30c-5.52,0-10,4.48-10,10v105c0,5.52,4.48,10,10,10h30c5.52,0,10-4.48,10-10v-105c0-5.52-4.48-10-10-10h0Z"/>
        </g>
      
        <g id="crossa-3">
          <rect class="cls-1 crossa" x="352.21" y="347.07" width="49" height="124" rx="9.5" ry="9.5"/>
          <path d="M391.71,347.57c4.96,0,9,4.04,9,9v105c0,4.96-4.04,9-9,9h-30c-4.96,0-9-4.04-9-9v-105c0-4.96,4.04-9,9-9h30M391.71,346.57h-30c-5.52,0-10,4.48-10,10v105c0,5.52,4.48,10,10,10h30c5.52,0,10-4.48,10-10v-105c0-5.52-4.48-10-10-10h0Z"/>
        </g>
          
    </g>

    <g id="rengles">

      <g>
        <g id="rengla-0">
          <rect class="cls-1 mans" x="414.52" y="661.52" width="124" height="49" rx="9.5" ry="9.5"/>
          <path d="M529.02,662.02c4.96,0,9,4.04,9,9v30c0,4.96-4.04,9-9,9h-105c-4.96,0-9-4.04-9-9v-30c0-4.96,4.04-9,9-9h105M529.02,661.02h-105c-5.52,0-10,4.48-10,10v30c0,5.52,4.48,10,10,10h105c5.52,0,10-4.48,10-10v-30c0-5.52-4.48-10-10-10h0Z"/>
        </g>
        <g id="rengla-1">
          <rect class="cls-1 vents" x="242.02" y="414.02" width="49" height="124" rx="9.5" ry="9.5"/>
          <path d="M281.52,414.52c4.96,0,9,4.04,9,9v105c0,4.96-4.04,9-9,9h-30c-4.96,0-9-4.04-9-9v-105c0-4.96,4.04-9,9-9h30M281.52,413.52h-30c-5.52,0-10,4.48-10,10v105c0,5.52,4.48,10,10,10h30c5.52,0,10-4.48,10-10v-105c0-5.52-4.48-10-10-10h0Z"/>
        </g>
        <g id="rengla-2">
          <rect class="cls-1 mans" x="414.52" y="241.52" width="124" height="49" rx="9.5" ry="9.5"/>
          <path d="M529.02,242.02c4.96,0,9,4.04,9,9v30c0,4.96-4.04,9-9,9h-105c-4.96,0-9-4.04-9-9v-30c0-4.96,4.04-9,9-9h105M529.02,241.02h-105c-5.52,0-10,4.48-10,10v30c0,5.52,4.48,10,10,10h105c5.52,0,10-4.48,10-10v-30c0-5.52-4.48-10-10-10h0Z"/>
        </g>
        <g id="rengla-3">
          <rect class="cls-1 vents" x="662.02" y="414.02" width="49" height="124" rx="9.5" ry="9.5"/>
          <path d="M701.52,414.52c4.96,0,9,4.04,9,9v105c0,4.96-4.04,9-9,9h-30c-4.96,0-9-4.04-9-9v-105c0-4.96,4.04-9,9-9h30M701.52,413.52h-30c-5.52,0-10,4.48-10,10v105c0,5.52,4.48,10,10,10h30c5.52,0,10-4.48,10-10v-105c0-5.52-4.48-10-10-10h0Z"/>
        </g>
      </g>

      <g>
        <g id="rengla-4">
          <rect class="cls-1 mans" x="414.83" y="721.63" width="124" height="49" rx="9.5" ry="9.5"/>
          <path d="M424.33,770.13c-4.96,0-9-4.04-9-9v-30c0-4.96,4.04-9,9-9h105c4.96,0,9,4.04,9,9v30c0,4.96-4.04,9-9,9h-105M424.33,771.13h105c5.52,0,10-4.48,10-10v-30c0-5.52-4.48-10-10-10h-105c-5.52,0-10,4.48-10,10v30c0,5.52,4.48,10,10,10h0Z"/>
        </g>
        <g id="rengla-5">
          <rect class="cls-1 vents" x="182.33" y="414.13" width="49" height="124" rx="9.5" ry="9.5"/>
          <path d="M182.83,423.63c0-4.96,4.04-9,9-9h30c4.96,0,9,4.04,9,9v105c0,4.96-4.04,9-9,9h-30c-4.96,0-9-4.04-9-9v-105M181.83,423.63v105c0,5.52,4.48,10,10,10h30c5.52,0,10-4.48,10-10v-105c0-5.52-4.48-10-10-10h-30c-5.52,0-10,4.48-10,10h0Z"/>
        </g>
        <g id="rengla-6">
          <rect class="cls-1 mans" x="414.83" y="181.63" width="124" height="49" rx="9.5" ry="9.5"/>
          <path d="M529.33,182.13c4.96,0,9,4.04,9,9v30c0,4.96-4.04,9-9,9h-105c-4.96,0-9-4.04-9-9v-30c0-4.96,4.04-9,9-9h105M529.33,181.13h-105c-5.52,0-10,4.48-10,10v30c0,5.52,4.48,10,10,10h105c5.52,0,10-4.48,10-10v-30c0-5.52-4.48-10-10-10h0Z"/>
        </g>
        <g id="rengla-7">
          <rect class="cls-1 vents" x="722.33" y="414.13" width="49" height="124" rx="9.5" ry="9.5"/>
          <path d="M770.83,528.63c0,4.96-4.04,9-9,9h-30c-4.96,0-9-4.04-9-9v-105c0-4.96,4.04-9,9-9h30c4.96,0,9,4.04,9,9v105M771.83,528.63v-105c0-5.52-4.48-10-10-10h-30c-5.52,0-10,4.48-10,10v105c0,5.52,4.48,10,10,10h30c5.52,0,10-4.48,10-10h0Z"/>
        </g>
      </g>

      <g>
          <g id="rengla-8">
            <rect class="cls-1 mans" x="414.52" y="782.02" width="124" height="49" rx="9.5" ry="9.5"/>
            <path d="M424.02,830.52c-4.96,0-9-4.04-9-9v-30c0-4.96,4.04-9,9-9h105c4.96,0,9,4.04,9,9v30c0,4.96-4.04,9-9,9h-105M424.02,831.52h105c5.52,0,10-4.48,10-10v-30c0-5.52-4.48-10-10-10h-105c-5.52,0-10,4.48-10,10v30c0,5.52,4.48,10,10,10h0Z"/>
          </g>
          <g id="rengla-9">
            <rect class="cls-1 vents" x="122.02" y="414.52" width="49" height="124" rx="9.5" ry="9.5"/>
            <path d="M122.52,424.02c0-4.96,4.04-9,9-9h30c4.96,0,9,4.04,9,9v105c0,4.96-4.04,9-9,9h-30c-4.96,0-9-4.04-9-9v-105M121.52,424.02v105c0,5.52,4.48,10,10,10h30c5.52,0,10-4.48,10-10v-105c0-5.52-4.48-10-10-10h-30c-5.52,0-10,4.48-10,10h0Z"/>
          </g>
          <g id="rengla-10">
            <rect class="cls-1 mans" x="414.52" y="122.02" width="124" height="49" rx="9.5" ry="9.5"/>
            <path d="M529.02,122.52c4.96,0,9,4.04,9,9v30c0,4.96-4.04,9-9,9h-105c-4.96,0-9-4.04-9-9v-30c0-4.96,4.04-9,9-9h105M529.02,121.52h-105c-5.52,0-10,4.48-10,10v30c0,5.52,4.48,10,10,10h105c5.52,0,10-4.48,10-10v-30c0-5.52-4.48-10-10-10h0Z"/>
          </g>
          <g id="rengla-11">
            <rect class="cls-1 vents" x="782.02" y="414.52" width="49" height="124" rx="9.5" ry="9.5"/>
            <path d="M830.52,529.02c0,4.96-4.04,9-9,9h-30c-4.96,0-9-4.04-9-9v-105c0-4.96,4.04-9,9-9h30c4.96,0,9,4.04,9,9v105M831.52,529.02v-105c0-5.52-4.48-10-10-10h-30c-5.52,0-10,4.48-10,10v105c0,5.52,4.48,10,10,10h30c5.52,0,10-4.48,10-10h0Z"/>
          </g>
      </g>

      <g>
        <g id="rengla-12">
          <rect class="cls-1 mans" x="414.52" y="842.02" width="124" height="49" rx="9.5" ry="9.5"/>
          <path d="M424.02,890.52c-4.96,0-9-4.04-9-9v-30c0-4.96,4.04-9,9-9h105c4.96,0,9,4.04,9,9v30c0,4.96-4.04,9-9,9h-105M424.02,891.52h105c5.52,0,10-4.48,10-10v-30c0-5.52-4.48-10-10-10h-105c-5.52,0-10,4.48-10,10v30c0,5.52,4.48,10,10,10h0Z"/>
        </g>
        <g id="rengla-13">
          <rect class="cls-1 vents" x="62.02" y="414.52" width="49" height="124" rx="9.5" ry="9.5"/>
          <path d="M62.52,424.02c0-4.96,4.04-9,9-9h30c4.96,0,9,4.04,9,9v105c0,4.96-4.04,9-9,9h-30c-4.96,0-9-4.04-9-9v-105M61.52,424.02v105c0,5.52,4.48,10,10,10h30c5.52,0,10-4.48,10-10v-105c0-5.52-4.48-10-10-10h-30c-5.52,0-10,4.48-10,10h0Z"/>
        </g>
        <g id="rengla-14">
          <rect class="cls-1 mans" x="414.52" y="62.02" width="124" height="49" rx="9.5" ry="9.5"/>
          <path d="M529.02,62.52c4.96,0,9,4.04,9,9v30c0,4.96-4.04,9-9,9h-105c-4.96,0-9-4.04-9-9v-30c0-4.96,4.04-9,9-9h105M529.02,61.52h-105c-5.52,0-10,4.48-10,10v30c0,5.52,4.48,10,10,10h105c5.52,0,10-4.48,10-10v-30c0-5.52-4.48-10-10-10h0Z"/>
        </g>
        <g id="rengla-15">
          <rect class="cls-1 vents" x="842.02" y="414.52" width="49" height="124" rx="9.5" ry="9.5"/>
          <path d="M890.52,529.02c0,4.96-4.04,9-9,9h-30c-4.96,0-9-4.04-9-9v-105c0-4.96,4.04-9,9-9h30c4.96,0,9,4.04,9,9v105M891.52,529.02v-105c0-5.52-4.48-10-10-10h-30c-5.52,0-10,4.48-10,10v105c0,5.52,4.48,10,10,10h30c5.52,0,10-4.48,10-10h0Z"/>
        </g>
      </g>

      <g>
        <g id="rengla-16">
          <rect class="cls-1 mans" x="414.52" y="902.02" width="124" height="49" rx="9.5" ry="9.5"/>
          <path d="M424.02,950.52c-4.96,0-9-4.04-9-9v-30c0-4.96,4.04-9,9-9h105c4.96,0,9,4.04,9,9v30c0,4.96-4.04,9-9,9h-105M424.02,951.52h105c5.52,0,10-4.48,10-10v-30c0-5.52-4.48-10-10-10h-105c-5.52,0-10,4.48-10,10v30c0,5.52,4.48,10,10,10h0Z"/>
        </g>
        <g id="rengla-17">
          <rect class="cls-1 vents" x="2.02" y="414.52" width="49" height="124" rx="9.5" ry="9.5"/>
          <path d="M2.52,424.02c0-4.96,4.04-9,9-9h30c4.96,0,9,4.04,9,9v105c0,4.96-4.04,9-9,9H11.52c-4.96,0-9-4.04-9-9v-105M1.52,424.02v105c0,5.52,4.48,10,10,10h30c5.52,0,10-4.48,10-10v-105c0-5.52-4.48-10-10-10H11.52c-5.52,0-10,4.48-10,10h0Z"/>
        </g>
        <g id="rengla-18">
          <rect class="cls-1 mans" x="414.52" y="2.02" width="124" height="49" rx="9.5" ry="9.5"/>
          <path d="M529.02,2.52c4.96,0,9,4.04,9,9v30c0,4.96-4.04,9-9,9h-105c-4.96,0-9-4.04-9-9V11.52c0-4.96,4.04-9,9-9h105M529.02,1.52h-105c-5.52,0-10,4.48-10,10v30c0,5.52,4.48,10,10,10h105c5.52,0,10-4.48,10-10V11.52c0-5.52-4.48-10-10-10h0Z"/>
        </g>
        <g id="rengla-19">
          <rect class="cls-1 vents" x="902.02" y="414.52" width="49" height="124" rx="9.5" ry="9.5"/>
          <path d="M950.52,529.02c0,4.96-4.04,9-9,9h-30c-4.96,0-9-4.04-9-9v-105c0-4.96,4.04-9,9-9h30c4.96,0,9,4.04,9,9v105M951.52,529.02v-105c0-5.52-4.48-10-10-10h-30c-5.52,0-10,4.48-10,10v105c0,5.52,4.48,10,10,10h30c5.52,0,10-4.48,10-10h0Z"/>
        </g>
      </g>
    </g>

    <g id="laterals">
      
      <g>
        <g id="lateral-0">
          <path class="cls-1 lateral" d="M598.15,681.89c-2.54,0-4.92-.99-6.72-2.78l-21.21-21.21c-1.79-1.79-2.78-4.18-2.78-6.72s.99-4.92,2.78-6.72l74.25-74.25c1.79-1.79,4.18-2.78,6.72-2.78s4.92.99,6.72,2.78l21.21,21.21c3.7,3.7,3.7,9.73,0,13.43l-74.25,74.25c-1.79,1.79-4.18,2.78-6.72,2.78Z"/>
          <path d="M651.18,567.93c2.4,0,4.66.94,6.36,2.64l21.21,21.21c1.7,1.7,2.64,3.96,2.64,6.36s-.94,4.66-2.64,6.36l-74.25,74.25c-1.7,1.7-3.96,2.64-6.36,2.64s-4.66-.94-6.36-2.64l-21.21-21.21c-3.51-3.51-3.51-9.22,0-12.73l74.25-74.25c1.7-1.7,3.96-2.64,6.36-2.64M651.18,566.93c-2.56,0-5.12.98-7.07,2.93l-74.25,74.25c-3.91,3.91-3.91,10.24,0,14.14l21.21,21.21c1.95,1.95,4.51,2.93,7.07,2.93s5.12-.98,7.07-2.93l74.25-74.25c3.91-3.91,3.91-10.24,0-14.14l-21.21-21.21c-1.95-1.95-4.51-2.93-7.07-2.93h0Z"/>
        </g>
      
        <g id="lateral-1">
          <path class="cls-1 lateral" d="M354.2,681.89c-2.54,0-4.92-.99-6.72-2.78l-74.25-74.25c-3.7-3.7-3.7-9.73,0-13.43l21.21-21.21c1.79-1.79,4.18-2.78,6.72-2.78s4.92.99,6.72,2.78l74.25,74.25c1.79,1.79,2.78,4.18,2.78,6.72s-.99,4.92-2.78,6.72l-21.21,21.21c-1.79,1.79-4.18,2.78-6.72,2.78Z"/>
          <path d="M301.16,567.93c2.4,0,4.66.94,6.36,2.64l74.25,74.25c1.7,1.7,2.64,3.96,2.64,6.36s-.94,4.66-2.64,6.36l-21.21,21.21c-1.7,1.7-3.96,2.64-6.36,2.64s-4.66-.94-6.36-2.64l-74.25-74.25c-1.7-1.7-2.64-3.96-2.64-6.36s.94-4.66,2.64-6.36l21.21-21.21c1.7-1.7,3.96-2.64,6.36-2.64M301.16,566.93c-2.56,0-5.12.98-7.07,2.93l-21.21,21.21c-3.91,3.91-3.91,10.24,0,14.14l74.25,74.25c1.95,1.95,4.51,2.93,7.07,2.93s5.12-.98,7.07-2.93l21.21-21.21c3.91-3.91,3.91-10.24,0-14.14l-74.25-74.25c-1.95-1.95-4.51-2.93-7.07-2.93h0Z"/>
        </g>
      
        <g id="lateral-2">
          <path class="cls-1 lateral" d="M301.16,384.91c-2.54,0-4.92-.99-6.72-2.78l-21.21-21.21c-3.7-3.7-3.7-9.73,0-13.44l74.25-74.25c1.79-1.79,4.18-2.78,6.72-2.78s4.92.99,6.72,2.78l21.21,21.21c1.79,1.79,2.78,4.18,2.78,6.72s-.99,4.92-2.78,6.72l-74.25,74.25c-1.79,1.79-4.18,2.78-6.72,2.78Z"/>
          <path d="M354.19,270.95c2.4,0,4.66.94,6.36,2.64l21.21,21.21c1.7,1.7,2.64,3.96,2.64,6.36s-.94,4.66-2.64,6.36l-74.25,74.25c-1.7,1.7-3.96,2.64-6.36,2.64s-4.66-.94-6.36-2.64l-21.21-21.21c-1.7-1.7-2.64-3.96-2.64-6.36s.94-4.66,2.64-6.36l74.25-74.25c1.7-1.7,3.96-2.64,6.36-2.64M354.19,269.95c-2.56,0-5.12.98-7.07,2.93l-74.25,74.25c-3.91,3.91-3.91,10.24,0,14.14l21.21,21.21c1.95,1.95,4.51,2.93,7.07,2.93s5.12-.98,7.07-2.93l74.25-74.25c3.91-3.91,3.91-10.24,0-14.14l-21.21-21.21c-1.95-1.95-4.51-2.93-7.07-2.93h0Z"/>
        </g>
      
        <g id="lateral-3">
          <path class="cls-1 lateral" d="M651.18,384.91c-2.54,0-4.92-.99-6.72-2.78l-74.25-74.25c-1.79-1.79-2.78-4.18-2.78-6.72s.99-4.92,2.78-6.72l21.21-21.21c1.79-1.79,4.18-2.78,6.72-2.78s4.92.99,6.72,2.78l74.25,74.25c1.79,1.79,2.78,4.18,2.78,6.72s-.99,4.92-2.78,6.72l-21.21,21.21c-1.79,1.79-4.18,2.78-6.72,2.78Z"/>
          <path d="M598.15,270.95c2.4,0,4.66.94,6.36,2.64l74.25,74.25c1.7,1.7,2.64,3.96,2.64,6.36s-.94,4.66-2.64,6.36l-21.21,21.21c-1.7,1.7-3.96,2.64-6.36,2.64s-4.66-.94-6.36-2.64l-74.25-74.25c-3.51-3.51-3.51-9.22,0-12.73l21.21-21.21c1.7-1.7,3.96-2.64,6.36-2.64M598.15,269.95c-2.56,0-5.12.98-7.07,2.93l-21.21,21.21c-3.91,3.91-3.91,10.24,0,14.14l74.25,74.25c1.95,1.95,4.51,2.93,7.07,2.93s5.12-.98,7.07-2.93l21.21-21.21c3.91-3.91,3.91-10.24,0-14.14l-74.25-74.25c-1.95-1.95-4.51-2.93-7.07-2.93h0Z"/>
        </g>
      </g>

      <g>
          <g id="lateral-4">
            <path class="cls-1 lateral" d="M640.87,724.18c-2.54,0-4.92-.99-6.72-2.78l-21.21-21.21c-3.7-3.7-3.7-9.73,0-13.43l74.25-74.25c1.79-1.79,4.18-2.78,6.72-2.78s4.92.99,6.72,2.78l21.21,21.21c1.79,1.79,2.78,4.18,2.78,6.72s-.99,4.92-2.78,6.72l-74.25,74.25c-1.79,1.79-4.18,2.78-6.72,2.78Z"/>
            <path d="M693.9,610.22c2.4,0,4.66.94,6.36,2.64l21.21,21.21c1.7,1.7,2.64,3.96,2.64,6.36s-.94,4.66-2.64,6.36l-74.25,74.25c-1.7,1.7-3.96,2.64-6.36,2.64s-4.66-.94-6.36-2.64l-21.21-21.21c-1.7-1.7-2.64-3.96-2.64-6.36s.94-4.66,2.64-6.36l74.25-74.25c1.7-1.7,3.96-2.64,6.36-2.64M693.9,609.22c-2.56,0-5.12.98-7.07,2.93l-74.25,74.25c-3.91,3.91-3.91,10.24,0,14.14l21.21,21.21c1.95,1.95,4.51,2.93,7.07,2.93s5.12-.98,7.07-2.93l74.25-74.25c3.91-3.91,3.91-10.24,0-14.14l-21.21-21.21c-1.95-1.95-4.51-2.93-7.07-2.93h0Z"/>
          </g>
          <g id="lateral-5">
            <path class="cls-1 lateral" d="M312.06,724.18c-2.54,0-4.92-.99-6.72-2.78l-74.25-74.25c-1.79-1.79-2.78-4.18-2.78-6.72s.99-4.92,2.78-6.72l21.21-21.21c1.79-1.79,4.18-2.78,6.72-2.78s4.92.99,6.72,2.78l74.25,74.25c1.79,1.79,2.78,4.18,2.78,6.72s-.99,4.92-2.78,6.72l-21.21,21.21c-1.79,1.79-4.18,2.78-6.72,2.78Z"/>
            <path d="M259.03,610.22c2.4,0,4.66.94,6.36,2.64l74.25,74.25c1.7,1.7,2.64,3.96,2.64,6.36s-.94,4.66-2.64,6.36l-21.21,21.21c-1.7,1.7-3.96,2.64-6.36,2.64s-4.66-.94-6.36-2.64l-74.25-74.25c-3.51-3.51-3.51-9.22,0-12.73l21.21-21.21c1.7-1.7,3.96-2.64,6.36-2.64M259.03,609.22c-2.56,0-5.12.98-7.07,2.93l-21.21,21.21c-3.91,3.91-3.91,10.24,0,14.14l74.25,74.25c1.95,1.95,4.51,2.93,7.07,2.93s5.12-.98,7.07-2.93l21.21-21.21c3.91-3.91,3.91-10.24,0-14.14l-74.25-74.25c-1.95-1.95-4.51-2.93-7.07-2.93h0Z"/>
          </g>
          <g id="lateral-6">
            <path class="cls-1 lateral" d="M259.03,342.34c-2.54,0-4.92-.99-6.72-2.78l-21.21-21.21c-1.79-1.79-2.78-4.18-2.78-6.72s.99-4.92,2.78-6.72l74.25-74.25c1.79-1.79,4.18-2.78,6.72-2.78s4.92.99,6.72,2.78l21.21,21.21c1.79,1.79,2.78,4.18,2.78,6.72s-.99,4.92-2.78,6.72l-74.25,74.25c-1.79,1.79-4.18,2.78-6.72,2.78Z"/>
            <path d="M312.06,228.38c2.4,0,4.66.94,6.36,2.64l21.21,21.21c3.51,3.51,3.51,9.22,0,12.73l-74.25,74.25c-1.7,1.7-3.96,2.64-6.36,2.64s-4.66-.94-6.36-2.64l-21.21-21.21c-3.51-3.51-3.51-9.22,0-12.73l74.25-74.25c1.7-1.7,3.96-2.64,6.36-2.64M312.06,227.38c-2.56,0-5.12.98-7.07,2.93l-74.25,74.25c-3.91,3.91-3.91,10.24,0,14.14l21.21,21.21c1.95,1.95,4.51,2.93,7.07,2.93s5.12-.98,7.07-2.93l74.25-74.25c3.91-3.91,3.91-10.24,0-14.14l-21.21-21.21c-1.95-1.95-4.51-2.93-7.07-2.93h0Z"/>
          </g>
          <g id="lateral-7">
            <path class="cls-1 lateral" d="M693.9,342.34c-2.54,0-4.92-.99-6.72-2.78l-74.25-74.25c-1.79-1.79-2.78-4.18-2.78-6.72s.99-4.92,2.78-6.72l21.21-21.21c1.79-1.79,4.18-2.78,6.72-2.78s4.92.99,6.72,2.78l74.25,74.25c1.79,1.79,2.78,4.18,2.78,6.72s-.99,4.92-2.78,6.72l-21.21,21.21c-1.79,1.79-4.18,2.78-6.72,2.78Z"/>
            <path d="M640.86,228.38c2.4,0,4.66.94,6.36,2.64l74.25,74.25c1.7,1.7,2.64,3.96,2.64,6.36s-.94,4.66-2.64,6.36l-21.21,21.21c-1.7,1.7-3.96,2.64-6.36,2.64s-4.66-.94-6.36-2.64l-74.25-74.25c-1.7-1.7-2.64-3.96-2.64-6.36s.94-4.66,2.64-6.36l21.21-21.21c1.7-1.7,3.96-2.64,6.36-2.64M640.86,227.38c-2.56,0-5.12.98-7.07,2.93l-21.21,21.21c-3.91,3.91-3.91,10.24,0,14.14l74.25,74.25c1.95,1.95,4.51,2.93,7.07,2.93s5.12-.98,7.07-2.93l21.21-21.21c3.91-3.91,3.91-10.24,0-14.14l-74.25-74.25c-1.95-1.95-4.51-2.93-7.07-2.93h0Z"/>
          </g>
        </g>

      </g>

      <g>
        <g id="lateral-8">
          <path class="cls-1 lateral" d="M683.35,767.1c-2.54,0-4.92-.99-6.72-2.78l-21.21-21.21c-3.7-3.7-3.7-9.73,0-13.43l74.25-74.25c1.79-1.79,4.18-2.78,6.72-2.78s4.92.99,6.72,2.78l21.21,21.21c1.79,1.79,2.78,4.18,2.78,6.72s-.99,4.92-2.78,6.72l-74.25,74.25c-1.79,1.79-4.18,2.78-6.72,2.78Z"/>
          <path d="M736.39,653.14c2.4,0,4.66.94,6.36,2.64l21.21,21.21c1.7,1.7,2.64,3.96,2.64,6.36s-.94,4.66-2.64,6.36l-74.25,74.25c-1.7,1.7-3.96,2.64-6.36,2.64s-4.66-.94-6.36-2.64l-21.21-21.21c-1.7-1.7-2.64-3.96-2.64-6.36s.94-4.66,2.64-6.36l74.25-74.25c1.7-1.7,3.96-2.64,6.36-2.64M736.39,652.14c-2.56,0-5.12.98-7.07,2.93l-74.25,74.25c-3.91,3.91-3.91,10.24,0,14.14l21.21,21.21c1.95,1.95,4.51,2.93,7.07,2.93s5.12-.98,7.07-2.93l74.25-74.25c3.91-3.91,3.91-10.24,0-14.14l-21.21-21.21c-1.95-1.95-4.51-2.93-7.07-2.93h0Z"/>
        </g>
        <g id="lateral-9">
          <path class="cls-1 lateral" d="M269.7,767.1c-2.54,0-4.92-.99-6.72-2.78l-74.25-74.25c-3.7-3.7-3.7-9.73,0-13.43l21.21-21.21c1.79-1.79,4.18-2.78,6.72-2.78s4.92.99,6.72,2.78l74.25,74.25c3.7,3.7,3.7,9.73,0,13.43l-21.21,21.21c-1.79,1.79-4.18,2.78-6.72,2.78Z"/>
          <path d="M216.66,653.14c2.4,0,4.66.94,6.36,2.64l74.25,74.25c1.7,1.7,2.64,3.96,2.64,6.36s-.94,4.66-2.64,6.36l-21.21,21.21c-1.7,1.7-3.96,2.64-6.36,2.64s-4.66-.94-6.36-2.64l-74.25-74.25c-3.51-3.51-3.51-9.22,0-12.73l21.21-21.21c1.7-1.7,3.96-2.64,6.36-2.64M216.66,652.14c-2.56,0-5.12.98-7.07,2.93l-21.21,21.21c-3.91,3.91-3.91,10.24,0,14.14l74.25,74.25c1.95,1.95,4.51,2.93,7.07,2.93s5.12-.98,7.07-2.93l21.21-21.21c3.91-3.91,3.91-10.24,0-14.14l-74.25-74.25c-1.95-1.95-4.51-2.93-7.07-2.93h0Z"/>
        </g>
        <g id="lateral-10">
          <path class="cls-1 lateral" d="M216.66,300.41c-2.54,0-4.92-.99-6.72-2.78l-21.21-21.21c-1.79-1.79-2.78-4.18-2.78-6.72s.99-4.92,2.78-6.72l74.25-74.25c1.79-1.79,4.18-2.78,6.72-2.78s4.92.99,6.72,2.78l21.21,21.21c1.79,1.79,2.78,4.18,2.78,6.72s-.99,4.92-2.78,6.72l-74.25,74.25c-1.79,1.79-4.18,2.78-6.72,2.78Z"/>
          <path d="M269.7,186.45c2.4,0,4.66.94,6.36,2.64l21.21,21.21c3.51,3.51,3.51,9.22,0,12.73l-74.25,74.25c-1.7,1.7-3.96,2.64-6.36,2.64s-4.66-.94-6.36-2.64l-21.21-21.21c-3.51-3.51-3.51-9.22,0-12.73l74.25-74.25c1.7-1.7,3.96-2.64,6.36-2.64M269.7,185.45c-2.56,0-5.12.98-7.07,2.93l-74.25,74.25c-3.91,3.91-3.91,10.24,0,14.14l21.21,21.21c1.95,1.95,4.51,2.93,7.07,2.93s5.12-.98,7.07-2.93l74.25-74.25c3.91-3.91,3.91-10.24,0-14.14l-21.21-21.21c-1.95-1.95-4.51-2.93-7.07-2.93h0Z"/>
        </g>
        <g id="lateral-11">
          <path class="cls-1 lateral" d="M736.39,300.41c-2.54,0-4.92-.99-6.72-2.78l-74.25-74.25c-1.79-1.79-2.78-4.18-2.78-6.72s.99-4.92,2.78-6.72l21.21-21.21c1.79-1.79,4.18-2.78,6.72-2.78s4.92.99,6.72,2.78l74.25,74.25c1.79,1.79,2.78,4.18,2.78,6.72s-.99,4.92-2.78,6.72l-21.21,21.21c-1.79,1.79-4.18,2.78-6.72,2.78Z"/>
          <path d="M683.35,186.45c2.4,0,4.66.94,6.36,2.64l74.25,74.25c1.7,1.7,2.64,3.96,2.64,6.36s-.94,4.66-2.64,6.36l-21.21,21.21c-1.7,1.7-3.96,2.64-6.36,2.64s-4.66-.94-6.36-2.64l-74.25-74.25c-3.51-3.51-3.51-9.22,0-12.73l21.21-21.21c1.7-1.7,3.96-2.64,6.36-2.64M683.35,185.45c-2.56,0-5.12.98-7.07,2.93l-21.21,21.21c-3.91,3.91-3.91,10.24,0,14.14l74.25,74.25c1.95,1.95,4.51,2.93,7.07,2.93s5.12-.98,7.07-2.93l21.21-21.21c3.91-3.91,3.91-10.24,0-14.14l-74.25-74.25c-1.95-1.95-4.51-2.93-7.07-2.93h0Z"/>
        </g>
      </g>

      <g>
        <g id="lateral-12">
          <path class="cls-1 lateral" d="M725.78,809.53c-2.54,0-4.92-.99-6.72-2.78l-21.21-21.21c-1.79-1.79-2.78-4.18-2.78-6.72s.99-4.92,2.78-6.72l74.25-74.25c1.79-1.79,4.18-2.78,6.72-2.78s4.92.99,6.72,2.78l21.21,21.21c1.79,1.79,2.78,4.18,2.78,6.72s-.99,4.92-2.78,6.72l-74.25,74.25c-1.79,1.79-4.18,2.78-6.72,2.78Z"/>
          <path d="M778.81,695.57c2.4,0,4.66.94,6.36,2.64l21.21,21.21c1.7,1.7,2.64,3.96,2.64,6.36s-.94,4.66-2.64,6.36l-74.25,74.25c-1.7,1.7-3.96,2.64-6.36,2.64s-4.66-.94-6.36-2.64l-21.21-21.21c-1.7-1.7-2.64-3.96-2.64-6.36s.94-4.66,2.64-6.36l74.25-74.25c1.7-1.7,3.96-2.64,6.36-2.64M778.81,694.57c-2.56,0-5.12.98-7.07,2.93l-74.25,74.25c-3.91,3.91-3.91,10.24,0,14.14l21.21,21.21c1.95,1.95,4.51,2.93,7.07,2.93s5.12-.98,7.07-2.93l74.25-74.25c3.91-3.91,3.91-10.24,0-14.14l-21.21-21.21c-1.95-1.95-4.51-2.93-7.07-2.93h0Z"/>
        </g>
        <g id="lateral-13">
          <path class="cls-1 lateral" d="M227.27,809.53c-2.54,0-4.92-.99-6.72-2.78l-74.25-74.25c-1.79-1.79-2.78-4.18-2.78-6.72s.99-4.92,2.78-6.72l21.21-21.21c1.79-1.79,4.18-2.78,6.72-2.78s4.92.99,6.72,2.78l74.25,74.25c1.79,1.79,2.78,4.18,2.78,6.72s-.99,4.92-2.78,6.72l-21.21,21.21c-1.79,1.79-4.18,2.78-6.72,2.78Z"/>
          <path d="M174.24,695.57c2.4,0,4.66.94,6.36,2.64l74.25,74.25c3.51,3.51,3.51,9.22,0,12.73l-21.21,21.21c-1.7,1.7-3.96,2.64-6.36,2.64s-4.66-.94-6.36-2.64l-74.25-74.25c-1.7-1.7-2.64-3.96-2.64-6.36s.94-4.66,2.64-6.36l21.21-21.21c1.7-1.7,3.96-2.64,6.36-2.64M174.24,694.57c-2.56,0-5.12.98-7.07,2.93l-21.21,21.21c-3.91,3.91-3.91,10.24,0,14.14l74.25,74.25c1.95,1.95,4.51,2.93,7.07,2.93s5.12-.98,7.07-2.93l21.21-21.21c3.91-3.91,3.91-10.24,0-14.14l-74.25-74.25c-1.95-1.95-4.51-2.93-7.07-2.93h0Z"/>
        </g>
        <g id="lateral-14">
          <path class="cls-1 lateral" d="M174.24,257.98c-2.54,0-4.92-.99-6.72-2.78l-21.21-21.21c-1.79-1.79-2.78-4.18-2.78-6.72s.99-4.92,2.78-6.72l74.25-74.25c1.79-1.79,4.18-2.78,6.72-2.78s4.92.99,6.72,2.78l21.21,21.21c1.79,1.79,2.78,4.18,2.78,6.72s-.99,4.92-2.78,6.72l-74.25,74.25c-1.79,1.79-4.18,2.78-6.72,2.78Z"/>
          <path d="M227.27,144.02c2.4,0,4.66.94,6.36,2.64l21.21,21.21c3.51,3.51,3.51,9.22,0,12.73l-74.25,74.25c-1.7,1.7-3.96,2.64-6.36,2.64s-4.66-.94-6.36-2.64l-21.21-21.21c-1.7-1.7-2.64-3.96-2.64-6.36s.94-4.66,2.64-6.36l74.25-74.25c1.7-1.7,3.96-2.64,6.36-2.64M227.27,143.02c-2.56,0-5.12.98-7.07,2.93l-74.25,74.25c-3.91,3.91-3.91,10.24,0,14.14l21.21,21.21c1.95,1.95,4.51,2.93,7.07,2.93s5.12-.98,7.07-2.93l74.25-74.25c3.91-3.91,3.91-10.24,0-14.14l-21.21-21.21c-1.95-1.95-4.51-2.93-7.07-2.93h0Z"/>
        </g>
        <g id="lateral-15">
          <path class="cls-1 lateral" d="M778.81,257.98c-2.54,0-4.92-.99-6.72-2.78l-74.25-74.25c-1.79-1.79-2.78-4.18-2.78-6.72s.99-4.92,2.78-6.72l21.21-21.21c1.79-1.79,4.18-2.78,6.72-2.78s4.92.99,6.72,2.78l74.25,74.25c1.79,1.79,2.78,4.18,2.78,6.72s-.99,4.92-2.78,6.72l-21.21,21.21c-1.79,1.79-4.18,2.78-6.72,2.78Z"/>
          <path d="M725.78,144.02c2.4,0,4.66.94,6.36,2.64l74.25,74.25c1.7,1.7,2.64,3.96,2.64,6.36s-.94,4.66-2.64,6.36l-21.21,21.21c-1.7,1.7-3.96,2.64-6.36,2.64s-4.66-.94-6.36-2.64l-74.25-74.25c-1.7-1.7-2.64-3.96-2.64-6.36s.94-4.66,2.64-6.36l21.21-21.21c1.7-1.7,3.96-2.64,6.36-2.64M725.78,143.02c-2.56,0-5.12.98-7.07,2.93l-21.21,21.21c-3.91,3.91-3.91,10.24,0,14.14l74.25,74.25c1.95,1.95,4.51,2.93,7.07,2.93s5.12-.98,7.07-2.93l21.21-21.21c3.91-3.91,3.91-10.24,0-14.14l-74.25-74.25c-1.95-1.95-4.51-2.93-7.07-2.93h0Z"/>
        </g>
      </g>

      <g>
        <g id="lateral-16">
          <path class="cls-1 lateral" d="M768.21,851.95c-2.54,0-4.92-.99-6.72-2.78l-21.21-21.21c-1.79-1.79-2.78-4.18-2.78-6.72s.99-4.92,2.78-6.72l74.25-74.25c1.79-1.79,4.18-2.78,6.72-2.78s4.92.99,6.72,2.78l21.21,21.21c1.79,1.79,2.78,4.18,2.78,6.72s-.99,4.92-2.78,6.72l-74.25,74.25c-1.79,1.79-4.18,2.78-6.72,2.78Z"/>
          <path d="M821.24,737.99c2.4,0,4.66.94,6.36,2.64l21.21,21.21c1.7,1.7,2.64,3.96,2.64,6.36s-.94,4.66-2.64,6.36l-74.25,74.25c-1.7,1.7-3.96,2.64-6.36,2.64s-4.66-.94-6.36-2.64l-21.21-21.21c-3.51-3.51-3.51-9.22,0-12.73l74.25-74.25c1.7-1.7,3.96-2.64,6.36-2.64M821.24,736.99c-2.56,0-5.12.98-7.07,2.93l-74.25,74.25c-3.91,3.91-3.91,10.24,0,14.14l21.21,21.21c1.95,1.95,4.51,2.93,7.07,2.93s5.12-.98,7.07-2.93l74.25-74.25c3.91-3.91,3.91-10.24,0-14.14l-21.21-21.21c-1.95-1.95-4.51-2.93-7.07-2.93h0Z"/>
        </g>
        <g id="lateral-17">
          <path class="cls-1 lateral" d="M184.84,851.95c-2.54,0-4.92-.99-6.72-2.78l-74.25-74.25c-1.79-1.79-2.78-4.18-2.78-6.72s.99-4.92,2.78-6.72l21.21-21.21c1.79-1.79,4.18-2.78,6.72-2.78s4.92.99,6.72,2.78l74.25,74.25c3.7,3.7,3.7,9.73,0,13.43l-21.21,21.21c-1.79,1.79-4.18,2.78-6.72,2.78Z"/>
          <path d="M131.81,737.99c2.4,0,4.66.94,6.36,2.64l74.25,74.25c3.51,3.51,3.51,9.22,0,12.73l-21.21,21.21c-1.7,1.7-3.96,2.64-6.36,2.64s-4.66-.94-6.36-2.64l-74.25-74.25c-1.7-1.7-2.64-3.96-2.64-6.36s.94-4.66,2.64-6.36l21.21-21.21c1.7-1.7,3.96-2.64,6.36-2.64M131.81,736.99c-2.56,0-5.12.98-7.07,2.93l-21.21,21.21c-3.91,3.91-3.91,10.24,0,14.14l74.25,74.25c1.95,1.95,4.51,2.93,7.07,2.93s5.12-.98,7.07-2.93l21.21-21.21c3.91-3.91,3.91-10.24,0-14.14l-74.25-74.25c-1.95-1.95-4.51-2.93-7.07-2.93h0Z"/>
        </g>
        <g id="lateral-18">
          <path class="cls-1 lateral" d="M131.81,215.56c-2.54,0-4.92-.99-6.72-2.78l-21.21-21.21c-3.7-3.7-3.7-9.73,0-13.44l74.25-74.25c1.79-1.79,4.18-2.78,6.72-2.78s4.92.99,6.72,2.78l21.21,21.21c1.79,1.79,2.78,4.18,2.78,6.72s-.99,4.92-2.78,6.72l-74.25,74.25c-1.79,1.79-4.18,2.78-6.72,2.78Z"/>
          <path d="M184.84,101.6c2.4,0,4.66.94,6.36,2.64l21.21,21.21c1.7,1.7,2.64,3.96,2.64,6.36s-.94,4.66-2.64,6.36l-74.25,74.25c-1.7,1.7-3.96,2.64-6.36,2.64s-4.66-.94-6.36-2.64l-21.21-21.21c-1.7-1.7-2.64-3.96-2.64-6.36s.94-4.66,2.64-6.36l74.25-74.25c1.7-1.7,3.96-2.64,6.36-2.64M184.84,100.6c-2.56,0-5.12.98-7.07,2.93l-74.25,74.25c-3.91,3.91-3.91,10.24,0,14.14l21.21,21.21c1.95,1.95,4.51,2.93,7.07,2.93s5.12-.98,7.07-2.93l74.25-74.25c3.91-3.91,3.91-10.24,0-14.14l-21.21-21.21c-1.95-1.95-4.51-2.93-7.07-2.93h0Z"/>
        </g>
        <g id="lateral-19">
          <path class="cls-1 lateral" d="M821.24,215.56c-2.54,0-4.92-.99-6.72-2.78l-74.25-74.25c-1.79-1.79-2.78-4.18-2.78-6.72s.99-4.92,2.78-6.72l21.21-21.21c1.79-1.79,4.18-2.78,6.72-2.78s4.92.99,6.72,2.78l74.25,74.25c1.79,1.79,2.78,4.18,2.78,6.72s-.99,4.92-2.78,6.72l-21.21,21.21c-1.79,1.79-4.18,2.78-6.72,2.78Z"/>
          <path d="M768.21,101.6c2.4,0,4.66.94,6.36,2.64l74.25,74.25c3.51,3.51,3.51,9.22,0,12.73l-21.21,21.21c-1.7,1.7-3.96,2.64-6.36,2.64s-4.66-.94-6.36-2.64l-74.25-74.25c-1.7-1.7-2.64-3.96-2.64-6.36s.94-4.66,2.64-6.36l21.21-21.21c1.7-1.7,3.96-2.64,6.36-2.64M768.21,100.6c-2.56,0-5.12.98-7.07,2.93l-21.21,21.21c-3.91,3.91-3.91,10.24,0,14.14l74.25,74.25c1.95,1.95,4.51,2.93,7.07,2.93s5.12-.98,7.07-2.93l21.21-21.21c3.91-3.91,3.91-10.24,0-14.14l-74.25-74.25c-1.95-1.95-4.51-2.93-7.07-2.93h0Z"/>
        </g>
    </g>

    <g id="fletxa-1">
      <path id="linia-1" class="cls-3" d="M426.52,492.52v-30,30Z"/>
      <polygon id="triangle-1" class="cls-2" points="426.32 460.02 421.02 469.02 431.62 469.02 426.32 460.02"/>
    </g>

    <g id="fletxa-0">
      <path id="linia-0" class="cls-3" d="M526.38,459.17v30-30Z"/>
      <polygon id="triangle-0" data-name="triangle" class="cls-2" points="526.59 491.67 531.88 482.67 521.29 482.67 526.59 491.67"/>
    </g>
  </g>

  <g id="text">

    <g id="text-baixos" data-name="baixos">
      <text id="text-baix-1" class="cls-4" transform="translate(533.06 560) rotate(-180)"></text>
      <text id="text-baix-0" class="cls-4" transform="translate(419.99 393.04)"></text>
    </g>

    <g id="text-agulles" data-name="agulles">
      <text id="text-agulla-0" class="cls-4" transform="translate(419.99 460.04)"></text>
    </g>

    <g id="text-contraforts" data-name="contraforts">
      <text id="text-contrafort-1" class="cls-4" transform="translate(533.06 620) rotate(-180)"></text>
      <text id="text-contrafort-0" class="cls-4" transform="translate(419.99 333.04)"></text>
    </g>

    <g id="text-crosses" data-name="crosses">
      <text id="text-crossa-3" class="cls-4" transform="translate(360.28 465.99) rotate(-90)"></text>
      <text id="text-crossa-2" class="cls-4" transform="translate(593.24 352.93) rotate(90)"></text>
      <text id="text-crossa-1" class="cls-4" transform="translate(592.77 487.05) rotate(90)"></text>
      <text id="text-crossa-0" class="cls-4" transform="translate(359.81 600.12) rotate(-90)"></text>
    </g>

    <g id="text-rengles" data-name="rengles">

      <text id="text-rengla-0" class="cls-4" transform="translate(533.06 702.5) rotate(-180)"></text>
      <text id="text-rengla-1" class="cls-4" transform="translate(250.04 532.56) rotate(-90)"></text>
      <text id="text-rengla-2" class="cls-4" transform="translate(419.99 249.54)"></text>
      <text id="text-rengla-3" class="cls-4" transform="translate(703.01 419.49) rotate(90)"></text>
    
      <text id="text-rengla-4" class="cls-4" transform="translate(533.36 762.61) rotate(-180)"></text>
      <text id="text-rengla-5" class="cls-4" transform="translate(190.35 532.67) rotate(-90)"></text>
      <text id="text-rengla-6" class="cls-4" transform="translate(420.3 189.65)"></text>
      <text id="text-rengla-7" class="cls-4" transform="translate(763.31 419.6) rotate(90)"></text>
    
      <text id="text-rengla-8" class="cls-4" transform="translate(533.06 823) rotate(-180)"></text>
      <text id="text-rengla-9" class="cls-4" transform="translate(130.04 533.06) rotate(-90)"></text>
      <text id="text-rengla-10" class="cls-4" transform="translate(419.99 130.04)"></text>
      <text id="text-rengla-11" class="cls-4" transform="translate(823.01 419.99) rotate(90)"></text>
    
      <text id="text-rengla-12" class="cls-4" transform="translate(533.06 883) rotate(-180)"></text>
      <text id="text-rengla-13" class="cls-4" transform="translate(70.04 533.06) rotate(-90)"></text>
      <text id="text-rengla-14" class="cls-4" transform="translate(419.99 70.04)"></text>
      <text id="text-rengla-15" class="cls-4" transform="translate(883.01 419.99) rotate(90)"></text>
    
      <text id="text-rengla-16" class="cls-4" transform="translate(533.06 943) rotate(-180)"></text>
      <text id="text-rengla-17" class="cls-4" transform="translate(10.04 533.06) rotate(-90)"></text>
      <text id="text-rengla-18" class="cls-4" transform="translate(419.99 10.04)"></text>
      <text id="text-rengla-19" class="cls-4" transform="translate(943.01 419.99) rotate(90)"></text>
        
    </g>

    <g id="text-laterals" data-name="laterals">

      <text id="text-lateral-0" class="cls-4" transform="translate(677.64 595.19) rotate(135)"></text>
      <text id="text-lateral-1" class="cls-4" transform="translate(357.35 675.14) rotate(-135)"></text>
      <text id="text-lateral-2" class="cls-4" transform="translate(277.41 354.85) rotate(-45)"></text>
      <text id="text-lateral-3" class="cls-4" transform="translate(597.7 274.91) rotate(45)"></text>

      <text id="text-lateral-4" class="cls-4" transform="translate(720.37 637.73) rotate(135)"></text>
      <text id="text-lateral-5" class="cls-4" transform="translate(315.23 717.68) rotate(-135)"></text>
      <text id="text-lateral-6" class="cls-4" transform="translate(235.28 312.54) rotate(-45)"></text>
      <text id="text-lateral-7" class="cls-4" transform="translate(640.43 232.59) rotate(45)"></text>
      
      <text id="text-lateral-8" class="cls-4" transform="translate(762.5 680.55) rotate(135)"></text>
      <text id="text-lateral-9" class="cls-4" transform="translate(272.5 760.49) rotate(-135)"></text>
      <text id="text-lateral-10" class="cls-4" transform="translate(192.55 270.5) rotate(-45)"></text>
      <text id="text-lateral-11" class="cls-4" transform="translate(682.55 190.55) rotate(45)"></text>
      
      <text id="text-lateral-12" class="cls-4" transform="translate(804.92 722.97) rotate(135)"></text>
      <text id="text-lateral-13" class="cls-4" transform="translate(230.07 802.92) rotate(-135)"></text>
      <text id="text-lateral-14" class="cls-4" transform="translate(150.13 228.07) rotate(-45)"></text>
      <text id="text-lateral-15" class="cls-4" transform="translate(724.98 148.13) rotate(45)"></text>
      
      <text id="text-lateral-16" class="cls-4" transform="translate(846.35 766.4) rotate(135)"></text>        
      <text id="text-lateral-17" class="cls-4" transform="translate(186.65 846.35) rotate(-135)"></text>            
      <text id="text-lateral-18" class="cls-4" transform="translate(106.7 186.65) rotate(-45)"></text>
      <text id="text-lateral-19" class="cls-4" transform="translate(766.4 106.7) rotate(45)"></text>

      </g>

  </g>

</svg>